<?xml version="1.0" encoding="UTF-8"?>
<svg id="Bun" version="1.1" viewBox="0 0 80 80" xml:space="preserve" xmlns="http://www.w3.org/2000/svg"><title>Bun Logo</title><g stroke-width=".91948"><path d="m72.182 42.37c0 13.985-14.408 25.323-32.182 25.323s-32.182-11.337-32.182-25.323c0-8.6707 5.5169-16.33 13.994-20.872 8.4776-4.5423 13.755-9.1948 18.187-9.1948 4.4319 0 8.2202 3.7975 18.187 9.1948 8.4776 4.5423 13.994 12.202 13.994 20.872z" fill="#fff3e0"/><path id="Bottom_Shadow" d="m72.182 42.37a19.925 19.925 0 0 0-0.73558-5.3146c-2.5102 30.619-39.859 32.09-54.544 22.932a36.78 36.78 0 0 0 23.097 7.7053c17.746 0 32.182-11.355 32.182-25.323z" fill="#fbe9e7" data-name="Bottom Shadow"/><path id="Light_Shine" d="m27.615 19.815c4.1101-2.4642 9.5719-7.0892 14.941-7.0984a8.542 8.542 0 0 0-2.5562-0.41377c-2.2252 0-4.5974 1.1494-7.5858 2.878-1.039 0.60686-2.1148 1.278-3.255 1.9769-2.1424 1.324-4.5974 2.8228-7.3559 4.3215-8.7534 4.7354-13.985 12.541-13.985 20.89v1.0942c5.5721-19.686 15.696-21.184 19.797-23.649z" fill="#fafafa" data-name="Light Shine"/><path d="m37.352 14.629a15.089 15.089 0 0 1-5.1767 11.466c-0.25746 0.22987-0.05517 0.67122 0.27585 0.54249 3.0986-1.2045 7.2823-4.8089 5.5169-12.082-0.07356-0.41377-0.61606-0.30343-0.61606 0.07356zm2.0872 0a14.932 14.932 0 0 1 1.4804 12.386c-0.11034 0.32182 0.28504 0.59767 0.5057 0.33101 2.0137-2.5745 3.7698-7.6869-1.4895-13.204-0.26664-0.23907-0.68042 0.12873-0.49651 0.45054zm2.5378-0.15631a15.098 15.098 0 0 1 6.2985 10.813 0.30343 0.30343 0 0 0 0.59767 0.10114c0.84592-3.209 0.3678-8.6799-6.5927-11.521-0.3678-0.14711-0.60686 0.3494-0.30344 0.57008zm-16.974 9.5626a15.576 15.576 0 0 0 9.627-8.2753c0.16551-0.33101 0.68961-0.20228 0.60686 0.16551-1.5907 7.3559-6.9145 8.8914-10.225 8.6891-0.34942 0.0092-0.34022-0.47814-0.0092-0.57928z" fill="#bcaaa4" fill-rule="evenodd"/><g><path d="m46.483 49.082a8.211 8.211 0 0 1-2.6849 4.3308 6.2617 6.2617 0 0 1-3.6779 1.7286 6.2893 6.2893 0 0 1-3.7975-1.7286 8.211 8.211 0 0 1-2.6481-4.3308 0.66203 0.66203 0 0 1 0.73559-0.74478h11.346a0.66203 0.66203 0 0 1 0.72639 0.74478z" fill="#b71c1c"/><path d="m36.322 53.487a6.3536 6.3536 0 0 0 3.7883 1.747 6.3536 6.3536 0 0 0 3.7791-1.747 9.7741 9.7741 0 0 0 0.91948-0.98385 6.2801 6.2801 0 0 0-4.5055-2.124 5.6548 5.6548 0 0 0-4.5974 2.5562c0.21148 0.1931 0.39539 0.37698 0.61606 0.55169z" fill="#ff5252" data-name="Background"/><path d="m36.469 52.761a4.9285 4.9285 0 0 1 3.8526-1.9125 5.5169 5.5169 0 0 1 3.678 1.5539c0.21148-0.22987 0.41377-0.46894 0.60686-0.70801a6.4364 6.4364 0 0 0-4.3308-1.7746 5.8479 5.8479 0 0 0-4.4963 2.17 8.7627 8.7627 0 0 0 0.68961 0.67122z" fill="#37474f" data-name="Outline"/><path d="m40.083 55.694a6.8226 6.8226 0 0 1-4.0917-1.839 8.7534 8.7534 0 0 1-2.8596-4.6434 1.1034 1.1034 0 0 1 0.23907-0.91948 1.2965 1.2965 0 0 1 1.039-0.46894h11.346a1.324 1.324 0 0 1 1.039 0.46894 1.0942 1.0942 0 0 1 0.22987 0.91948 8.7534 8.7534 0 0 1-2.8596 4.6434 6.8226 6.8226 0 0 1-4.0825 1.839zm-5.6732-6.8042c-0.14712 0-0.18391 0.06437-0.19311 0.08276a7.6225 7.6225 0 0 0 2.5102 4.0182 5.7284 5.7284 0 0 0 3.3561 1.6091 5.7743 5.7743 0 0 0 3.3561-1.5907 7.6317 7.6317 0 0 0 2.501-4.0182 0.1931 0.1931 0 0 0-0.1839-0.08275z" fill="#37474f" data-name="Outline"/></g><ellipse cx="53.994" cy="46.489" rx="5.379" ry="3.163" fill="#f8bbd0" data-name="Right Blush"/><ellipse cx="26.162" cy="46.489" rx="5.379" ry="3.163" fill="#f8bbd0" data-name="Left Bluch"/><path d="m28.691 45.22a5.0664 5.0664 0 1 0-5.0571-5.0664 5.0664 5.0664 0 0 0 5.0571 5.0664zm22.776 0a5.0664 5.0664 0 1 0-5.0296-5.0664 5.0571 5.0571 0 0 0 5.0296 5.0664z" fill="#37474f" fill-rule="evenodd"/><path d="m27.127 40.476a1.9033 1.9033 0 1 0-1.8941-1.9033 1.9033 1.9033 0 0 0 1.8941 1.9033zm22.776 0a1.9033 1.9033 0 1 0-1.8941-1.9033 1.9033 1.9033 0 0 0 1.8757 1.9033z" fill="#fff" fill-rule="evenodd"/></g></svg>
