<?xml version="1.0" encoding="UTF-8"?>
<svg id="Bun" version="1.1" viewBox="0 0 80 80" xml:space="preserve" xmlns="http://www.w3.org/2000/svg"><title>Bun Logo</title><g stroke-width=".90384"><path id="Shadow" d="m38.192 8.7046c-2.7115 1e-7 -5.4228 1.2552-8.5953 3.1352-1.0394 0.61461-2.1146 1.2757-3.2535 1.9807-2.0698 1.2744-4.3921 2.7288-7.1036 4.175-9.3547 5.0525-14.942 13.485-14.942 22.524 0 6.6042 2.9601 12.663 7.868 17.376l3.1317 3.1317c6.2184 6.2455 15.79 10.269 26.51 10.269 18.691 0 33.894-12.184 33.894-27.115 0-6.3811-2.7478-12.428-7.6014-17.182-0.14462-0.15365-0.29828-0.30731-0.45192-0.45192-0.15366-0.14461-0.29828-0.30731-0.45192-0.45192-0.15366-0.14461-0.29828-0.30731-0.45192-0.45192-0.15366-0.14461-0.29828-0.30731-0.45192-0.45192-0.15366-0.14462-0.29828-0.30731-0.45192-0.45192-0.15366-0.14461-0.29828-0.30731-0.45192-0.45192-0.12845-0.12089-0.25141-0.25274-0.37778-0.37778-2.1834-2.2636-4.8201-4.2696-7.8645-5.9138-3.3442-1.7986-5.884-3.3709-8.1345-4.7628-0.96711-0.61461-1.8712-1.176-2.7751-1.6912-2.9646-1.7534-5.333-2.8369-8.0445-2.8369zm0 2.2596c2.1873 0 4.1849 0.90278 6.9235 2.5297 0.8225 0.49711 1.7263 1.0574 2.7115 1.6629 2.1602 1.3377 4.8275 3.0381 8.244 4.8458 8.6136 4.6367 13.755 12.31 13.755 20.516 0 13.729-14.19 24.901-31.634 24.901s-31.634-11.172-31.634-24.901c0-8.2068 5.1437-15.881 13.748-20.536 2.7115-1.4733 5.1248-2.9458 7.2307-4.2473 1.1208-0.68692 2.1774-1.3471 3.1987-1.9436 2.9375-1.6992 5.2694-2.828 7.4567-2.828zm28.85 15.289a23.916 23.916 0 0 1 0.72554 1.0062c-0.23594-0.3382-0.47161-0.67631-0.72554-1.0062zm2.1184 3.2252a23.916 23.916 0 0 1 0.3407 0.64787c-0.11191-0.21685-0.22186-0.43354-0.3407-0.64787zm-54.617 30.471c0.06762 0.05286 0.13661 0.1047 0.20478 0.15711-0.06819-0.05243-0.13712-0.10424-0.20478-0.15711zm1.3063 0.96739c0.07902 0.05565 0.15865 0.11087 0.23832 0.16594-0.07971-0.05511-0.15925-0.11025-0.23832-0.16594zm1.3928 0.92855c0.07204 0.04554 0.14285 0.09261 0.21537 0.1377-0.07248-0.04507-0.14336-0.09216-0.21537-0.1377zm1.5005 0.89854c0.04366 0.0246 0.08682 0.0497 0.13063 0.07414-0.04383-0.02447-0.08696-0.04951-0.13063-0.07414zm6.4575 2.858c0.09613 0.03209 0.1947 0.0604 0.29128 0.0918-0.09671-0.03147-0.19501-0.05963-0.29128-0.0918zm1.6647 0.51194c0.14433 0.04113 0.29081 0.07867 0.43603 0.11828-0.14526-0.03965-0.29166-0.07709-0.43603-0.11828zm1.6541 0.4325c0.19629 0.04693 0.39362 0.0918 0.59137 0.13593-0.19765-0.04415-0.39519-0.08898-0.59137-0.13593zm1.7759 0.38131c0.18313 0.03516 0.36652 0.06963 0.55077 0.10239-0.18426-0.0328-0.36765-0.06719-0.55077-0.10239zm1.7777 0.3001c0.19911 0.02922 0.39813 0.05832 0.59844 0.08473-0.20044-0.02646-0.39921-0.05546-0.59844-0.08473zm1.7477 0.21713c0.23231 0.02409 0.46355 0.05209 0.69729 0.07238-0.23389-0.02031-0.46484-0.04826-0.69729-0.07238zm1.8765 0.15358c0.2161 0.01267 0.43068 0.02944 0.64787 0.03884-0.21724-0.0094-0.43174-0.02616-0.64787-0.03884z" fill="#455a64"/><path d="m69.827 40.519c0 13.747-14.163 24.892-31.634 24.892s-31.634-11.144-31.634-24.892c0-8.5232 5.423-16.052 13.756-20.517 8.3334-4.465 13.521-9.0384 17.878-9.0384 4.3565 0 8.0803 3.7329 17.878 9.0384 8.3334 4.465 13.756 11.994 13.756 20.517z" fill="#fff3e0"/><path id="Bottom_Shadow" d="m69.827 40.519a19.586 19.586 0 0 0-0.72307-5.2242c-2.4675 30.098-39.181 31.544-53.616 22.542a36.154 36.154 0 0 0 22.704 7.5742c17.444 0 31.634-11.162 31.634-24.892z" fill="#fbe9e7" data-name="Bottom Shadow"/><path id="Light_Shine" d="m26.018 18.348c4.0402-2.4223 9.409-6.9686 14.687-6.9776a8.3967 8.3967 0 0 0-2.5127-0.40673c-2.1873 0-4.5192 1.1298-7.4567 2.829-1.0213 0.59653-2.0788 1.2563-3.1996 1.9433-2.1059 1.3015-4.5192 2.7748-7.2307 4.248-8.6045 4.6548-13.747 12.328-13.747 20.535v1.0756c5.4773-19.351 15.429-20.824 19.46-23.247z" fill="#fafafa" data-name="Light Shine"/><path d="m35.59 13.25a14.832 14.832 0 0 1-5.0886 11.271c-0.25308 0.22596-0.05423 0.6598 0.27116 0.53326 3.0459-1.184 7.1584-4.7271 5.423-11.876-0.07231-0.40673-0.60558-0.29827-0.60558 0.07231zm2.0517 0a14.678 14.678 0 0 1 1.4552 12.175c-0.10846 0.31634 0.28019 0.5875 0.4971 0.32538 1.9794-2.5307 3.7057-7.5561-1.4642-12.979-0.2621-0.235-0.66884 0.12654-0.48806 0.44288zm2.4946-0.15365a14.841 14.841 0 0 1 6.1913 10.629 0.29827 0.29827 0 0 0 0.5875 0.09942c0.83153-3.1544 0.36154-8.5322-6.4805-11.325-0.36154-0.14461-0.59653 0.34346-0.29828 0.56038zm-16.685 9.3999a15.311 15.311 0 0 0 9.4632-8.1345c0.16269-0.32538 0.67788-0.19884 0.59653 0.16269-1.5636 7.2307-6.7969 8.7401-10.051 8.5413-0.34347 9e-3 -0.33443-0.47-9e-3 -0.56942z" fill="#bcaaa4" fill-rule="evenodd"/></g><g transform="matrix(.90384 0 0 .90384 3.8469 8.2521)" fill="#b71c1c" data-name="Background"><path d="m45.05 43a8.93 8.93 0 0 1-2.92 4.71 6.81 6.81 0 0 1-4 1.88 6.84 6.84 0 0 1-4.13-1.88 8.93 8.93 0 0 1-2.88-4.71 0.72 0.72 0 0 1 0.8-0.81h12.34a0.72 0.72 0 0 1 0.79 0.81z" fill="#b71c1c"/></g><g stroke-width=".90384"><path d="m34.577 51.447a6.2455 6.2455 0 0 0 3.7238 1.7173 6.2455 6.2455 0 0 0 3.7148-1.7173 9.6078 9.6078 0 0 0 0.90384-0.96711 6.1732 6.1732 0 0 0-4.4288-2.0879 5.5586 5.5586 0 0 0-4.5192 2.5127c0.20788 0.18981 0.38866 0.37057 0.60558 0.5423z" fill="#ff5252" data-name="Background"/><path d="m34.722 50.733a4.8446 4.8446 0 0 1 3.7871-1.88 5.423 5.423 0 0 1 3.6154 1.5275c0.20788-0.22596 0.40673-0.46096 0.59653-0.69596a6.3269 6.3269 0 0 0-4.2571-1.7444 5.7484 5.7484 0 0 0-4.4198 2.1331 8.6136 8.6136 0 0 0 0.67788 0.6598z" fill="#455a64" data-name="Outline"/><path d="m38.274 53.616a6.7065 6.7065 0 0 1-4.0221-1.8077 8.6045 8.6045 0 0 1-2.8109-4.5644 1.0846 1.0846 0 0 1 0.235-0.90384 1.2744 1.2744 0 0 1 1.0213-0.46096h11.153a1.3015 1.3015 0 0 1 1.0213 0.46096 1.0756 1.0756 0 0 1 0.22596 0.90384 8.6045 8.6045 0 0 1-2.8109 4.5644 6.7065 6.7065 0 0 1-4.013 1.8077zm-5.5767-6.6884c-0.14462 0-0.18078 0.06327-0.18982 0.08135a7.4928 7.4928 0 0 0 2.4675 3.9498 5.6309 5.6309 0 0 0 3.299 1.5817 5.6761 5.6761 0 0 0 3.299-1.5636 7.5019 7.5019 0 0 0 2.4584-3.9498 0.18981 0.18981 0 0 0-0.18077-0.08134z" fill="#455a64" data-name="Outline"/><ellipse cx="51.949" cy="44.568" rx="5.2875" ry="3.1092" fill="#f8bbd0" data-name="Right Blush"/><ellipse cx="24.59" cy="44.568" rx="5.2875" ry="3.1092" fill="#f8bbd0" data-name="Left Bluch"/><path d="m27.076 43.321a4.9802 4.9802 0 1 0-4.9711-4.9802 4.9802 4.9802 0 0 0 4.9711 4.9802zm22.388 0a4.9802 4.9802 0 1 0-4.944-4.9802 4.9711 4.9711 0 0 0 4.944 4.9802z" fill="#455a64" fill-rule="evenodd"/><path d="m25.539 38.657a1.8709 1.8709 0 1 0-1.8619-1.8709 1.8709 1.8709 0 0 0 1.8619 1.8709zm22.388 0a1.8709 1.8709 0 1 0-1.8619-1.8709 1.8709 1.8709 0 0 0 1.8438 1.8709z" fill="#fff" fill-rule="evenodd"/></g></svg>
