<?xml version="1.0" encoding="UTF-8"?>
<svg clip-rule="evenodd" stroke-linejoin="round" stroke-miterlimit="1.414" version="1.1" viewBox="0 0 24 24" xml:space="preserve" xmlns="http://www.w3.org/2000/svg"><defs><clipPath id="clipPath23253"><rect x="1.461e-6" y="-2.6811e-7" width="128" height="112.64" fill="#fff"/></clipPath></defs><path d="M10 4H4c-1.1 0-2 .9-2 2v12c0 1.1.9 2 2 2h16c1.1 0 2-.9 2-2V8c0-1.1-.9-2-2-2h-8l-2-2z" fill="#26a69a"/><path transform="matrix(.11551 0 0 .11551 8.9425 7.7517)" d="m59.677 0.0024848-0.72707 0.72707v26.327l0.72707 0.74397h8.7924l0.72707-0.74397v-26.327l-0.72707-0.72707h-8.7924zm-26.293 18.582-6.0363 6.0194v1.2174l9.232 9.2151h6.3745l0.86233-0.84543v-6.3914l-9.2151-9.2151h-1.2174zm14.152 19.445-0.72707 0.72706v35.102l0.72707 0.74397h8.7755l0.74397-0.74397v-26.58l0.4058-0.43962c2.7737-0.1089 5.374-0.16095 7.6426-0.10145 4.4083 0.098999 5.8503 2.9389 5.8503 6.5943v20.544l0.72707 0.72706h8.7755l0.72706-0.72706v-21.947c0-7.6778-6.2214-13.899-13.899-13.899h-19.749zm-46.803 13.155-0.74397 0.72706v8.8093l0.74397 0.72707h35.119l0.72707-0.72707v-8.8093l-0.72707-0.72706h-35.119zm91.424 0-0.72707 0.72706v8.8093l0.72707 0.72707h35.119l0.74398-0.72707v-8.8093l-0.74398-0.72706h-35.119zm-55.578 26.411-9.232 9.2151v1.2005l6.0363 6.0363h1.2174l9.2151-9.2151v-6.3914l-0.86233-0.84542h-6.3745zm23.097 7.2368-0.72707 0.74398v26.327l0.72707 0.72706h8.7924l0.72707-0.72706v-26.327l-0.72707-0.74398h-8.7924z" clip-path="url(#clipPath23253)" fill="#a7ffeb"/></svg>
