<svg clip-rule="evenodd" fill-rule="evenodd" stroke-linejoin="round" stroke-miterlimit="1.414" viewBox="0 0 24 24" xml:space="preserve" xmlns="http://www.w3.org/2000/svg"><path d="M10 4H4c-1.11 0-2 .89-2 2v12c0 1.097.903 2 2 2h16c1.097 0 2-.903 2-2V8a2 2 0 0 0-2-2h-8l-2-2z" fill="#039be5" fill-rule="nonzero"/><path d="M20.788 15.981h-2.434v2.434h-1.217V15.98h-2.434v-1.217h2.434V12.33h1.217v2.434h2.434m-3.042-5.476a6.085 6.085 0 0 0-6.085 6.084 6.085 6.085 0 0 0 6.085 6.085 6.085 6.085 0 0 0 6.084-6.085 6.085 6.085 0 0 0-6.084-6.084z" fill="#b3e5fc"/></svg>