<?xml version="1.0" encoding="UTF-8"?>
<svg clip-rule="evenodd" stroke-linejoin="round" stroke-miterlimit="1.414" version="1.1" viewBox="0 0 24 24" xmlns="http://www.w3.org/2000/svg">
 <path d="M19 20H4a2 2 0 0 1-2-2V6c0-1.11.89-2 2-2h6l2 2h7c1.097 0 2 .903 2 2H4v10l2.14-8h17.07l-2.28 8.5c-.23.87-1.01 1.5-1.93 1.5z" fill="#26a69a"/>
 <path transform="matrix(.11551 0 0 .11551 8.943 7.752)" d="m59.673-4.058e-4 -0.72707 0.72707v26.327l0.72707 0.74397h8.7924l0.74397-0.74397v-26.327l-0.74397-0.72707h-8.7924zm-26.293 18.582-6.0194 6.0194v1.2174l9.2151 9.232h6.3914l0.84542-0.86233v-6.3914l-9.2151-9.2151h-1.2174zm14.152 19.445-0.72707 0.74397v35.085l0.72707 0.74398h8.7924l0.72707-0.74398v-26.58l0.4058-0.42271c2.7737-0.1089 5.374-0.17786 7.6426-0.11836 4.4083 0.099 5.8503 2.9389 5.8503 6.5943v20.544l0.72707 0.72707h8.7755l0.74397-0.72707v-21.947c0-7.6778-6.2214-13.899-13.899-13.899h-19.766zm-46.803 13.155-0.72707 0.72707v8.8093l0.72707 0.72706h35.119l0.72707-0.72706v-8.8093l-0.72707-0.72707h-35.119zm91.441 0-0.74397 0.72707v8.8093l0.74397 0.72706h35.102l0.74398-0.72706v-8.8093l-0.74398-0.72707h-35.102zm-55.595 26.411-9.2151 9.2151v1.2174l6.0194 6.0363h1.2174l9.2151-9.232v-6.3914l-0.84542-0.84542h-6.3914zm23.097 7.2368-0.72707 0.74397v26.327l0.72707 0.74397h8.7924l0.74397-0.74397v-26.327l-0.74397-0.74397h-8.7924z" fill="#a7ffeb"/>
</svg>
