<svg clip-rule="evenodd" stroke-linejoin="round" stroke-miterlimit="1.414" viewBox="0 0 24 24" xml:space="preserve" xmlns="http://www.w3.org/2000/svg"><path d="M19 20H4a2 2 0 0 1-2-2V6c0-1.11.89-2 2-2h6l2 2h7c1.097 0 2 .903 2 2H4v10l2.14-8h17.07l-2.28 8.5c-.23.87-1.01 1.5-1.93 1.5z" fill="#0097a7"/><path d="M17.651 19.893a4.761 4.761 0 0 0 4.761-4.761 4.761 4.761 0 0 0-4.761-4.761 4.761 4.761 0 0 0-4.761 4.76 4.761 4.761 0 0 0 4.761 4.762m0-10.713a5.952 5.952 0 0 1 5.952 5.952 5.952 5.952 0 0 1-5.952 5.951 5.957 5.957 0 0 1-5.952-5.951 5.952 5.952 0 0 1 5.952-5.952m.298 2.976v3.124l2.678 1.59-.447.731-3.124-1.874v-3.571z" fill="#b2ebf2" stroke="#b2ebf2" stroke-miterlimit="4" stroke-width=".271"/></svg>