<?xml version="1.0" encoding="UTF-8"?>
<svg clip-rule="evenodd" fill-rule="evenodd" stroke-linejoin="round" stroke-miterlimit="1.414" version="1.1" viewBox="0 0 24 24" xml:space="preserve" xmlns="http://www.w3.org/2000/svg"><path d="M10 4H4c-1.11 0-2 .89-2 2v12c0 1.097.903 2 2 2h16c1.097 0 2-.903 2-2V8a2 2 0 0 0-2-2h-8l-2-2z" fill="#26a69a" fill-rule="nonzero"/><path d="m17.612 8.537 6.1185 6.1185h-3.4963v3.5837c-0.87408 0.78667-1.7481 1.6607-2.6222 2.5348l-6.1185-6.1185zm-2.5348 6.1185 2.5348 2.5348v-2.5348h2.5348c-0.78667-0.87408-1.6607-1.7481-2.5348-2.5348-0.87408 0.78666-1.7481 1.6607-2.5348 2.5348z" fill="#b2dfdb" stroke-width=".87407"/></svg>
