<svg clip-rule="evenodd" fill-rule="evenodd" stroke-linejoin="round" stroke-miterlimit="1.414" viewBox="0 0 24 24" xmlns="http://www.w3.org/2000/svg"><path d="M10 4H4c-1.11 0-2 .89-2 2v12c0 1.097.903 2 2 2h16c1.097 0 2-.903 2-2V8a2 2 0 0 0-2-2h-8l-2-2z" fill="#607D8B" fill-rule="nonzero"/><path d="M13.589 11.247h-2.02a.675.675 0 0 0-.672.673v8.082c0 .37.302.673.673.673h2.02a.675.675 0 0 0 .673-.673V11.92a.675.675 0 0 0-.673-.673zm9.428 0h-2.02a.675.675 0 0 0-.674.673v8.082c0 .37.303.673.673.673h2.02a.675.675 0 0 0 .674-.673V11.92a.675.675 0 0 0-.673-.673zm-4.714 0h-2.02a.675.675 0 0 0-.673.673v8.082c0 .37.302.673.673.673h2.02a.675.675 0 0 0 .673-.673V11.92a.675.675 0 0 0-.673-.673z" style="fill:#cfd8dc;stroke-width:1.1126"/></svg>