<svg xmlns="http://www.w3.org/2000/svg" viewBox="0 0 24 24" xml:space="preserve"><path d="M10 4H4c-1.1 0-2 .9-2 2v12c0 1.1.9 2 2 2h16c1.1 0 2-.9 2-2V8c0-1.1-.9-2-2-2h-8l-2-2z" fill="#42a5f5"/><g transform="translate(-.203 -.102)"><circle cx="17.5" cy="15.6" r="5.7" fill="none" stroke="#B3E5FC"/><path class="st2" d="M17.6 12.1c-2 0-3.6 1.6-3.6 3.5 0 2 1.6 3.5 3.6 3.5s3.6-1.6 3.6-3.5-1.6-3.5-3.6-3.5zm1 1.1c.7 0 1.3.6 1.3 1.3 0 .7-.6 1.3-1.3 1.3-.7 0-1.3-.6-1.3-1.3 0-.8.6-1.3 1.3-1.3z" fill-rule="evenodd" clip-rule="evenodd" fill="#B3E5FC"/><circle class="st2" cx="21.7" cy="11.5" fill-rule="evenodd" clip-rule="evenodd" fill="#B3E5FC" r="1.3"/></g></svg>