<svg clip-rule="evenodd" stroke-linejoin="round" stroke-miterlimit="1.414" viewBox="0 0 24 24" xml:space="preserve" xmlns="http://www.w3.org/2000/svg"><path d="M19 20H4a2 2 0 0 1-2-2V6c0-1.11.89-2 2-2h6l2 2h7c1.097 0 2 .903 2 2H4v10l2.14-8h17.07l-2.28 8.5c-.23.87-1.01 1.5-1.93 1.5z" fill="#ffb300"/><path d="M20.911 14.422a4.939 4.939 0 0 0-4.846-3.976 4.949 4.949 0 0 0-4.385 2.657 3.959 3.959 0 0 0-3.527 3.937 3.956 3.956 0 0 0 3.956 3.956h8.571a3.297 3.297 0 0 0 3.297-3.297c0-1.74-1.352-3.152-3.066-3.277z" fill="#ffecb3"/></svg>