<?xml version="1.0" encoding="UTF-8"?>
<svg version="1.1" viewBox="0 0 24 24" xml:space="preserve" xmlns="http://www.w3.org/2000/svg"><path d="M10 4H4c-1.11 0-2 .89-2 2v12c0 1.097.903 2 2 2h16c1.097 0 2-.903 2-2V8a2 2 0 0 0-2-2h-8l-2-2Z" fill="#2196f3"/><path d="m10.845 11.106c0 2.6678 2.0308 4.8311 4.5355 4.8311h1.3609c-2.5057 0-4.5355 2.1633-4.5355 4.8311h0.90793c1.8725 0 3.4803-1.2085 4.1727-2.9335 0.69238 1.725 2.3002 2.9335 4.1727 2.9335h0.90793c0-2.6678-2.0297-4.8311-4.5355-4.8311h1.3609c2.5047 0 4.5355-2.1633 4.5355-4.8311h-2.2688c-1.8725 0-3.4803 1.2085-4.1727 2.9335-0.69238-1.725-2.3002-2.9335-4.1727-2.9335zm6.4415 2.9356c0.23358 0.58247 0.36275 1.2231 0.36275 1.8955s-0.12917 1.3131-0.36275 1.8955a5.0866 5.0866 0 0 1-0.36275-1.8955c0-0.67244 0.12917-1.3131 0.36275-1.8955z" fill="#bbdefb" stroke-width="1.0736"/></svg>
