<svg clip-rule="evenodd" stroke-linejoin="round" stroke-miterlimit="1.414" viewBox="0 0 24 24" xml:space="preserve" xmlns="http://www.w3.org/2000/svg"><path d="M19 20H4a2 2 0 0 1-2-2V6c0-1.11.89-2 2-2h6l2 2h7c1.097 0 2 .903 2 2H4v10l2.14-8h17.07l-2.28 8.5c-.23.87-1.01 1.5-1.93 1.5z" fill="#e57373" style="fill:#ef5350"/><path d="m17.345 18.448-2.32-2.32.818-.818 1.502 1.497 3.822-3.822.818.824m-3.48-3.48a.58.58 0 0 1 .58.58.58.58 0 0 1-.58.58.58.58 0 0 1-.58-.58.58.58 0 0 1 .58-.58m4.06 0H20.14c-.243-.673-.881-1.16-1.635-1.16s-1.392.487-1.636 1.16h-2.424a1.16 1.16 0 0 0-1.16 1.16v8.119a1.16 1.16 0 0 0 1.16 1.16h8.12a1.16 1.16 0 0 0 1.16-1.16v-8.12a1.16 1.16 0 0 0-1.16-1.16z" style="fill:#ffcdd2;stroke-width:.57994"/></svg>