<?xml version="1.0" encoding="UTF-8"?>
<svg version="1.1" viewBox="0 0 24 24" xml:space="preserve" xmlns="http://www.w3.org/2000/svg"><path d="M10 4H4c-1.11 0-2 .89-2 2v12c0 1.097.903 2 2 2h16c1.097 0 2-.903 2-2V8a2 2 0 0 0-2-2h-8l-2-2Z" fill="#66bb6a"/><path d="m18.931 20.579c-0.30174 0.37873-0.91666 0.17064-0.92394-0.31214l-0.10613-3.5719-0.02185-3.496h4.8101c0.86672 0 1.3516 0.99469 0.81157 1.6689l-4.5698 5.7122zm-2.0112-11.83c0.3059-0.40891 0.92602-0.1852 0.93331 0.33503l0.04786 7.6121h-4.7789c-0.874 0-1.363-1.0717-0.81885-1.7969l4.6166-6.1513z" fill="#c8e6c9" stroke-width="1.0405"/></svg>
