<svg clip-rule="evenodd" fill-rule="evenodd" stroke-linejoin="round" stroke-miterlimit="1.414" viewBox="0 0 24 24" xml:space="preserve" xmlns="http://www.w3.org/2000/svg"><path d="M10 4H4c-1.11 0-2 .89-2 2v12c0 1.097.903 2 2 2h16c1.097 0 2-.903 2-2V8a2 2 0 0 0-2-2h-8z" fill="#616161" fill-rule="nonzero"/><path d="M9.031 21.532v-9.919l1.719-.01c2.814 0 4.151.603 4.2 3.024-.09 2.483-1.346 3.187-4.21 3.026v3.879H9.031zm1.699-5.246-.01-3.377q2.814-.181 2.794 1.709-.02 1.889-2.784 1.668z" fill="#e8e8e8"/><path d="m15.815 21.542.02-7.929 3.93 3.612 3.829-3.753.04 8.09-7.819-.02z" fill="#FFD180"/><path d="m15.815 11.603 3.94 3.748 3.819-3.789-7.759.041z" fill="#FFD180"/></svg>