<svg xmlns="http://www.w3.org/2000/svg" viewBox="0 0 24 24" xml:space="preserve"><path d="M19 20H4c-1.1 0-2-.9-2-2V6c0-1.1.9-2 2-2h6l2 2h7c1.1 0 2 .9 2 2H4v10l2.1-8h17.1l-2.3 8.5c-.2.9-1 1.5-1.9 1.5z" fill="#42a5f5"/><g transform="translate(-.203 -.102)"><circle cx="17.5" cy="15.6" r="5.7" fill="none" stroke="#B3E5FC"/><path d="M17.6 12.1c-2 0-3.6 1.6-3.6 3.5 0 2 1.6 3.5 3.6 3.5s3.6-1.6 3.6-3.5-1.6-3.5-3.6-3.5zm1 1c.7 0 1.3.6 1.3 1.3 0 .7-.6 1.3-1.3 1.3-.7 0-1.3-.6-1.3-1.3.1-.7.6-1.3 1.3-1.3z" fill-rule="evenodd" clip-rule="evenodd" fill="#B3E5FC"/><circle cx="21.7" cy="11.5" fill-rule="evenodd" clip-rule="evenodd" fill="#B3E5FC" r="1.3"/></g></svg>