<?xml version="1.0" encoding="UTF-8"?>
<svg clip-rule="evenodd" stroke-linejoin="round" stroke-miterlimit="1.414" version="1.1" viewBox="0 0 24 24" xml:space="preserve" xmlns="http://www.w3.org/2000/svg"><path d="M19 20H4a2 2 0 0 1-2-2V6c0-1.11.89-2 2-2h6l2 2h7c1.097 0 2 .903 2 2H4v10l2.14-8h17.07l-2.28 8.5c-.23.87-1.01 1.5-1.93 1.5z" fill="#26a69a"/><path d="m17.612 8.537 6.1185 6.1185h-3.4963v3.5837c-0.87408 0.78667-1.7481 1.6607-2.6222 2.5348l-6.1185-6.1185zm-2.5348 6.1185 2.5348 2.5348v-2.5348h2.5348c-0.78667-0.87408-1.6607-1.7481-2.5348-2.5348-0.87408 0.78666-1.7481 1.6607-2.5348 2.5348z" fill="#b2dfdb" stroke-width=".87407"/></svg>
