<?xml version="1.0" encoding="UTF-8"?>
<svg version="1.1" viewBox="0 0 24 24" xmlns="http://www.w3.org/2000/svg">
 <path d="M19 20H4a2 2 0 0 1-2-2V6c0-1.11.89-2 2-2h6l2 2h7c1.097 0 2 .903 2 2H4v10l2.14-8h17.07l-2.28 8.5c-.23.87-1.01 1.5-1.93 1.5Z" fill="#66bb6a"/>
 <path d="m18.931 20.579c-0.30174 0.37873-0.91666 0.17064-0.92394-0.31214l-0.10613-3.5719-0.02185-3.496h4.8101c0.86672 0 1.3516 0.99469 0.81157 1.6689l-4.5698 5.7122zm-2.0112-11.83c0.3059-0.40891 0.92602-0.1852 0.93331 0.33503l0.04786 7.6121h-4.7789c-0.874 0-1.363-1.0717-0.81885-1.7969l4.6166-6.1513z" fill="#c8e6c9" stroke-width="1.0405"/>
</svg>
