<?xml version="1.0" encoding="UTF-8"?>
<svg version="1.1" viewBox="0 0 24 24" xml:space="preserve" xmlns="http://www.w3.org/2000/svg"><path d="M19 20H4C3.46957 20 2.96086 19.7893 2.58579 19.4142C2.21071 19.0391 2 18.5304 2 18V6C2 4.89 2.89 4 4 4H10L12 6H19C20.097 6 21 6.903 21 8H4V18L6.14 10H23.21L20.93 18.5C20.7 19.37 19.92 20 19 20Z" fill="#AB47BC"/><path d="m17.609 20.773c-0.83618 0-1.6264-0.16072-2.3707-0.48215-0.74435-0.32102-1.3943-0.75947-1.9499-1.3153-0.55587-0.55557-0.99442-1.2055-1.3153-1.9499-0.32143-0.74435-0.48215-1.5347-0.48215-2.3707 0-0.84636 0.16072-1.639 0.48215-2.3781 0.32092-0.73942 0.75947-1.387 1.3153-1.9425 0.55557-0.55598 1.2055-0.99462 1.9499-1.316 0.74435-0.321 1.5346-0.48149 2.3707-0.48149 0.84636 0 1.639 0.16049 2.3781 0.48149 0.73942 0.3214 1.3869 0.76004 1.9425 1.316 0.55598 0.55546 0.99442 1.2031 1.3154 1.9425 0.32133 0.73911 0.48205 1.5318 0.48205 2.3781v0.88708c0 0.60163-0.20637 1.1139-0.61911 1.5369-0.41326 0.42333-0.9206 0.63505-1.5222 0.63505-0.36709 0-0.70867-0.08164-1.0248-0.24472-0.31609-0.16318-0.57613-0.37727-0.78003-0.64245-0.27537 0.27537-0.59896 0.49212-0.97098 0.65037-0.37243 0.15784-0.77273 0.23681-1.201 0.23681-0.84636 0-1.5677-0.2984-2.164-0.8951-0.5967-0.59628-0.8951-1.3176-0.8951-2.164s0.2984-1.5679 0.8951-2.1646c0.59628-0.59639 1.3176-0.89448 2.164-0.89448s1.5679 0.29809 2.1646 0.89448c0.59628 0.5967 0.89448 1.3182 0.89448 2.1646v0.88708c0 0.29573 0.09182 0.5276 0.27537 0.69561 0.18354 0.16853 0.39763 0.25274 0.64235 0.25274 0.24472 0 0.45891-0.08422 0.64245-0.25274 0.18354-0.16802 0.27526-0.39989 0.27526-0.69561v-0.88708c0-1.3358-0.48194-2.4856-1.4457-3.4494-0.96337-0.96348-2.113-1.4451-3.4488-1.4451s-2.4856 0.48163-3.4494 1.4451c-0.96337 0.96378-1.4451 2.1136-1.4451 3.4494s0.48174 2.4854 1.4451 3.4488c0.96378 0.96378 2.1136 1.4457 3.4494 1.4457h3.0591v1.2236zm0-4.2827c0.50981 0 0.94322-0.1785 1.3001-0.53531 0.35691-0.35691 0.53531-0.79032 0.53531-1.3001 0-0.50991-0.1784-0.94322-0.53531-1.3001s-0.79032-0.53531-1.3001-0.53531c-0.50981 0-0.94322 0.1784-1.3001 0.53531-0.3568 0.35691-0.53531 0.79021-0.53531 1.3001 0 0.50981 0.1785 0.94322 0.53531 1.3001 0.35691 0.3568 0.79032 0.53531 1.3001 0.53531z" fill="#e1bee7" stroke-width="1.0282"/></svg>
