<?xml version="1.0" encoding="UTF-8"?>
<svg clip-rule="evenodd" fill-rule="evenodd" stroke-linejoin="round" stroke-miterlimit="1.414" version="1.1" viewBox="0 0 24 24" xml:space="preserve" xmlns="http://www.w3.org/2000/svg"><path d="M10 4H4c-1.11 0-2 .89-2 2v12c0 1.097.903 2 2 2h16c1.097 0 2-.903 2-2V8a2 2 0 0 0-2-2h-8l-2-2z" fill="#78909c" fill-rule="nonzero"/><g transform="matrix(.64627 0 0 .64627 9.6944 6.9581)" fill="#cfd8dc"><path d="m21.7 12.6c0.3-5.2-3.6-10.8-9.6-10.1-2.7 0.3-4.3 1.7-5 3.2-1.2 2.5 0.1 5.8 4 6.9 2.4 0.7 2.9 1.7 2.6 2.9-0.3 1.1-1.1 2.3-1.3 3.3-0.1 0.3-0.1 0.6-0.1 0.9 0.1 2.2 4.6 3.1 8.1-2.8 0.8-1.2 1.2-2.7 1.3-4.3z"/><path d="m6.2 11.4v-0.4c0-0.1 0-0.2-0.1-0.3-0.2-1-1-1.6-2-1.5s-1.7 0.9-1.8 1.9v0.5c0.1 1.1 1.1 1.9 2.1 1.8 1.1-0.2 1.8-1 1.8-2z"/><path d="m10.6 16.7c-0.4-1.6-2-2.6-3.6-2.1-1.3 0.3-2.1 1.4-2.2 2.7-0.1 0.4 0 0.8 0.1 1.2 0.4 1.6 2.1 2.6 3.7 2.1 1.4-0.4 2.3-1.7 2.2-3.2-0.1-0.2-0.1-0.4-0.2-0.7z"/></g></svg>
