<?xml version="1.0" encoding="UTF-8"?>
<svg version="1.1" viewBox="0 0 24 24" xmlns="http://www.w3.org/2000/svg">
 <path d="M19 20H4a2 2 0 0 1-2-2V6c0-1.11.89-2 2-2h6l2 2h7c1.097 0 2 .903 2 2H4v10l2.14-8h17.07l-2.28 8.5c-.23.87-1.01 1.5-1.93 1.5Z" fill="#2196f3"/>
 <path d="m10.845 11.106c0 2.6678 2.0308 4.8311 4.5355 4.8311h1.3609c-2.5057 0-4.5355 2.1633-4.5355 4.8311h0.90793c1.8725 0 3.4803-1.2085 4.1727-2.9335 0.69238 1.725 2.3002 2.9335 4.1727 2.9335h0.90793c0-2.6678-2.0297-4.8311-4.5355-4.8311h1.3609c2.5047 0 4.5355-2.1633 4.5355-4.8311h-2.2688c-1.8725 0-3.4803 1.2085-4.1727 2.9335-0.69238-1.725-2.3002-2.9335-4.1727-2.9335zm6.4415 2.9356c0.23358 0.58247 0.36275 1.2231 0.36275 1.8955s-0.12917 1.3131-0.36275 1.8955a5.0866 5.0866 0 0 1-0.36275-1.8955c0-0.67244 0.12917-1.3131 0.36275-1.8955z" fill="#bbdefb" stroke-width="1.0736"/>
</svg>
