<svg clip-rule="evenodd" stroke-linejoin="round" stroke-miterlimit="2" viewBox="0 0 24 24" xml:space="preserve" xmlns="http://www.w3.org/2000/svg"><path d="M19 20H4a2 2 0 0 1-2-2V6c0-1.11.89-2 2-2h6l2 2h7c1.097 0 2 .903 2 2H4v10l2.14-8h17.07l-2.28 8.5c-.23.87-1.01 1.5-1.93 1.5Z" fill="#546e7a"/><g stroke-width=".879" fill-rule="evenodd"><path d="M15.137 12.002a1.016 1.016 0 0 0-1.753 0l-4.247 7.302c-.39.67.098 1.508.877 1.508h3.315a.97.97 0 0 1-.204-1.227l3.216-5.513z" fill="#69f0ae"/><path d="M17.828 13.604a.846.846 0 0 1 1.451 0l3.515 5.975c.322.548-.08 1.233-.726 1.233H15.04c-.645 0-1.048-.685-.725-1.233z" fill="#00e676" fill-rule="nonzero"/></g></svg>