<?xml version="1.0" encoding="UTF-8"?>
<svg clip-rule="evenodd" stroke-linejoin="round" stroke-miterlimit="1.414" version="1.1" viewBox="0 0 24 24" xml:space="preserve" xmlns="http://www.w3.org/2000/svg"><path d="M10 4H4c-1.11 0-2 .89-2 2v12c0 1.097.903 2 2 2h16c1.097 0 2-.903 2-2V8a2 2 0 0 0-2-2h-8l-2-2z" fill="#ff7043"/><path d="m22.707 13.269c-0.17763-0.23191-0.39474-0.43421-0.59704-0.63158-0.5181-0.45888-1.1102-0.78948-1.6036-1.273a3.7944 3.7944 0 0 1-0.67599-4.3915c-0.74014 0.17763-1.3816 0.57731-1.9293 1.0115a6.0198 6.0198 0 0 0-1.8602 6.8339c0.03454 0.07401 0.06415 0.14803 0.06415 0.25165 0 0.16776-0.11842 0.32566-0.27138 0.38487-0.17763 0.07894-0.36513 0.02961-0.51316-0.09375a3.8092 3.8092 0 0 1-0.5329-4.0609 5.4425 5.4425 0 0 0-1.8997 4.4754c0.04935 0.38487 0.09375 0.76974 0.22698 1.1546 0.10362 0.45888 0.31579 0.91777 0.5477 1.3273a5.4277 5.4277 0 0 0 3.8487 2.4671c1.653 0.21217 3.4293-0.08881 4.7023-1.2237a4.5148 4.5148 0 0 0 1.1842-5.0675l-0.09869-0.19737c-0.16283-0.35527-0.59704-0.96711-0.59704-0.96711m-2.4474 4.8356c-0.22204 0.18257-0.5773 0.37994-0.85362 0.45888-0.86843 0.30592-1.7369-0.12336-2.25-0.63158a2.1415 2.1415 0 0 0 1.6382-1.574c0.12829-0.61185-0.11842-1.1201-0.21711-1.7072a2.8125 2.8125 0 0 1 0.12829-1.579c0.14803 0.28618 0.30592 0.5773 0.49342 0.80921 0.59211 0.76974 1.5296 1.1053 1.7319 2.1513 0.02961 0.10362 0.04935 0.21217 0.04935 0.32566a2.3339 2.3339 0 0 1-0.7204 1.7467z" fill="#ffccbc" stroke-width=".49342"/></svg>
