<svg clip-rule="evenodd" stroke-linejoin="round" stroke-miterlimit="1.414" viewBox="0 0 24 24" xml:space="preserve" xmlns="http://www.w3.org/2000/svg"><path d="M19 20H4a2 2 0 0 1-2-2V6c0-1.11.89-2 2-2h6l2 2h7c1.097 0 2 .903 2 2H4v10l2.14-8h17.07l-2.28 8.5c-.23.87-1.01 1.5-1.93 1.5z" fill="#e57373" style="fill:#00acc1"/><path d="M23.043 12.103c.458.458.458 1.202 0 1.603l-1.603 1.603-4.465-4.465 1.603-1.603c.458-.458 1.202-.458 1.603 0l1.03 1.03 1.717-1.717.802.801-1.717 1.718 1.03 1.03m-3.32 3.32-.802-.801-1.602 1.603-1.202-1.203 1.602-1.602-.801-.802-1.603 1.603-.859-.801-1.602 1.602c-.458.458-.458 1.203 0 1.603l1.03 1.03-2.29 2.29.802.802 2.29-2.29 1.03 1.03c.458.458 1.202.458 1.603 0l1.602-1.602-.801-.802z" style="fill:#b2ebf2;stroke-width:.57244"/></svg>