<?xml version="1.0" encoding="UTF-8"?>
<svg version="1.1" viewBox="0 0 24 24" xmlns="http://www.w3.org/2000/svg">
 <path d="M19,20H4c-1.105,0-2-0.895-2-2V6c0-1.11,0.89-2,2-2h6l2,2h7c1.097,0,2,0.903,2,2H4v10l2.14-8h17.07 l-2.28,8.5C20.7,19.37,19.92,20,19,20z" fill="#ff9800"/>
 <g transform="matrix(.87402 0 0 .87402 2.8627 .76736)" fill="#fff3e0">
  <path class="st1" d="m22.583 11.978-4.87-2.789c-0.441-0.253-0.983-0.253-1.424 0l-4.87 2.789c-0.281 0.161-0.494 0.409-0.614 0.7-0.07 0.17-0.107 0.354-0.107 0.544v5.557c0 0.514 0.266 0.941 0.712 1.197l0.69 0.393 0.021-6.519c0-0.138 0.03-0.281 0.077-0.406 0.092-0.226 0.262-0.432 0.481-0.557l3.771-2.159c0.342-0.196 0.761-0.196 1.103 0l3.771 2.159c0.263 0.151 0.45 0.401 0.523 0.687 0.023 0.089 0.035 0.181 0.035 0.276v4.303c0 0.398-0.213 0.765-0.558 0.963l-3.771 2.159c-0.172 0.099-0.364 0.147-0.556 0.146v1.579c0.246 0 0.494-0.063 0.714-0.189l4.87-2.789c0.446-0.255 0.721-0.73 0.721-1.244v-5.556c0-0.132-0.018-0.261-0.053-0.384-0.097-0.359-0.335-0.67-0.666-0.86z"/>
  <path class="st1" d="m17.396 19.782 2.705-1.549c0.248-0.142 0.4-0.405 0.4-0.691v-3.085c0-0.065-8e-3 -0.128-0.023-0.19-0.051-0.209-0.186-0.391-0.377-0.501l-2.705-1.548c-0.245-0.14-0.546-0.14-0.791 0l-2.704 1.548c-0.17 0.098-0.296 0.253-0.358 0.432-0.026 0.081-0.043 0.172-0.043 0.259l-0.01 6.696 1.443 0.81v-3.138l1.672 0.957c0.12 0.069 0.254 0.104 0.388 0.105 0.139 2e-3 0.278-0.033 0.403-0.105zm-2.236-2.456c-0.147-0.084-0.238-0.241-0.238-0.41v-1.832c0-0.056 0.01-0.11 0.028-0.161 0.038-0.104 0.111-0.193 0.21-0.249l1.606-0.919c0.145-0.083 0.324-0.083 0.47 0l1.606 0.919c0.118 0.068 0.2 0.182 0.227 0.312 5e-3 0.028 0.01 0.069 0.01 0.098v1.832c0 0.169-0.091 0.326-0.238 0.41l-1.606 0.919c-0.073 0.042-0.154 0.063-0.235 0.063s-0.162-0.021-0.235-0.062z"/>
 </g>
</svg>
