<svg clip-rule="evenodd" stroke-linejoin="round" stroke-miterlimit="1.414" viewBox="0 0 24 24" xml:space="preserve" xmlns="http://www.w3.org/2000/svg"><path d="M19 20H4a2 2 0 0 1-2-2V6c0-1.11.89-2 2-2h6l2 2h7c1.097 0 2 .903 2 2H4v10l2.14-8h17.07l-2.28 8.5c-.23.87-1.01 1.5-1.93 1.5z" fill="#e57373" style="fill:#f9a825"/><path d="M19.017 17.773a1.196 1.196 0 0 0 1.196-1.196c0-.663-.538-1.195-1.196-1.195a1.196 1.196 0 0 0-1.196 1.196 1.196 1.196 0 0 0 1.196 1.195m3.587-5.38a1.196 1.196 0 0 1 1.195 1.196v5.977a1.196 1.196 0 0 1-1.196 1.196H15.43a1.196 1.196 0 0 1-1.195-1.196V13.59c0-.664.538-1.196 1.195-1.196h.598v-1.195a2.989 2.989 0 0 1 2.989-2.99 2.989 2.989 0 0 1 2.989 2.99v1.195h.598m-3.587-2.989a1.793 1.793 0 0 0-1.793 1.794v1.195h3.586v-1.195a1.793 1.793 0 0 0-1.793-1.794z" style="fill:#fff9c4;stroke-width:.59776"/></svg>