<svg clip-rule="evenodd" fill-rule="evenodd" stroke-linejoin="round" stroke-miterlimit="1.414" viewBox="0 0 24 24" xmlns="http://www.w3.org/2000/svg"><path d="M10 4H4c-1.11 0-2 .89-2 2v12c0 1.097.903 2 2 2h16c1.097 0 2-.903 2-2V8a2 2 0 0 0-2-2h-8l-2-2z" fill="#4DD0E1" fill-rule="nonzero" style="fill:#8d6e63"/><path d="M3 17.25V21h3.75L17.81 9.94l-3.75-3.75zM20.71 7.04a.996.996 0 0 0 0-1.41l-2.34-2.34a.996.996 0 0 0-1.41 0l-1.83 1.83 3.75 3.75z" style="fill:#d7ccc8" transform="translate(10.292 7.29) scale(.64045)"/></svg>