<?xml version="1.0" encoding="UTF-8"?>
<svg version="1.1" viewBox="0 0 16 16" xmlns="http://www.w3.org/2000/svg">
 <g transform="matrix(.94701 0 0 .94701 .42389 .42436)" fill="#66bb6a">
  <path d="m6.576 1.399c-0.64 0.142-1.272 0.34-1.865 0.639 0.014 0.524 0.047 1.026 0.116 1.535-0.23 0.147-0.473 0.274-0.688 0.447-0.219 0.168-0.442 0.329-0.64 0.526a12.042 12.042 0 0 0-1.245-0.725c-0.464 0.5-0.899 1.04-1.254 1.644 0.267 0.432 0.546 0.837 0.847 1.221h8e-3v3.708l0.02 1e-3 2.273 0.219a0.245 0.245 0 0 1 0.221 0.227l0.07 1.003 1.983 0.141 0.137-0.926a0.245 0.245 0 0 1 0.242-0.209h2.398c0.121 0 0.224 0.089 0.242 0.209l0.137 0.926 1.983-0.141 0.07-1.003a0.246 0.246 0 0 1 0.221-0.227l2.272-0.219 0.02-1e-3v-0.296h1e-3v-3.411h8e-3c0.301-0.384 0.58-0.789 0.847-1.221a9.545 9.545 0 0 0-1.254-1.644c-0.431 0.217-0.85 0.463-1.245 0.724-0.198-0.197-0.421-0.358-0.64-0.526-0.215-0.173-0.457-0.299-0.687-0.447 0.068-0.51 0.102-1.012 0.116-1.535-0.593-0.299-1.226-0.496-1.866-0.639-0.256 0.429-0.489 0.894-0.693 1.349a4.665 4.665 0 0 0-0.726-0.058h-0.01a4.655 4.655 0 0 0-0.726 0.058c-0.204-0.455-0.437-0.92-0.693-1.349zm-1.798 5.424a1.37 1.37 0 1 1 1e-3 2.739 1.37 1.37 0 0 1-1e-3 -2.739zm6.444 0a1.37 1.37 0 1 1 0 2.74 1.37 1.37 0 0 1 0-2.74zm-3.222 0.801c0.244 0 0.441 0.18 0.441 0.401v1.261c0 0.221-0.198 0.401-0.441 0.401-0.244 0-0.441-0.179-0.441-0.401v-1.261c0-0.222 0.197-0.401 0.441-0.401z"/>
  <path d="m12.104 11.082-0.07 1.009a0.244 0.244 0 0 1-0.227 0.227l-2.421 0.172-0.018 1e-3a0.245 0.245 0 0 1-0.242-0.209l-0.138-0.942h-1.976l-0.139 0.942a0.244 0.244 0 0 1-0.26 0.208l-2.421-0.173a0.246 0.246 0 0 1-0.227-0.227l-0.07-1.009-2.044-0.197 4e-3 0.508c0 2.159 2.738 3.196 6.14 3.208h8e-3c3.402-0.012 6.14-1.049 6.14-3.208l4e-3 -0.508z"/>
 </g>
</svg>
