<svg xmlns="http://www.w3.org/2000/svg" viewBox="0 0 256 256">
  <path fill="#0288d1" d="M126.9,41.6c30.2,0,56.1,18.5,67.1,44.8c29.2,6.3,51.1,32.2,51.1,63.3c0,35.7-29,64.7-64.7,64.7h-61.4
	c-2.4,0-4.6,0-7,0c-2.1,0-4,0-6.1,0H60.7c-27.5,0-49.7-22.3-49.7-49.7c0-25.3,18.8-46.1,43.2-49.3l0-0.8
	C54.2,74.3,86.8,41.6,126.9,41.6z M129.5,90.6c-3.5,0-6.3,2.8-6.3,6.4v86.7c0,3.5,2.8,6.4,6.3,6.4c3.5,0,6.3-2.8,6.3-6.4V97
	C135.8,93.5,133,90.6,129.5,90.6z M88.5,116.3c-0.2,10.4-1.6,21-3.7,30.4c-0.9,3.9-1.8,7.4-2.8,10.1c-0.4,1.2-0.8,2.2-1.1,3
	c-0.1,0.3-0.3,0.6-0.4,0.7c-2.2,2.7-1.7,6.7,1,8.9c2.7,2.2,6.7,1.8,8.9-1c4.8-6,10.3-30.4,10.7-51.9c0.1-3.5-2.7-6.4-6.2-6.5
	S88.6,112.8,88.5,116.3z M163.8,110l-0.1,0c-3.5,0.1-6.3,3-6.2,6.5c0.4,21.5,5.9,45.9,10.7,51.9c2.2,2.7,6.2,3.2,8.9,1
	c2.7-2.2,3.1-6.2,1-8.9c-0.1-0.2-0.2-0.4-0.4-0.7c-0.3-0.7-0.7-1.8-1.1-3c-0.9-2.7-1.9-6.2-2.8-10.1c-2.1-9.4-3.5-20-3.7-30.4
	c-0.1-3.5-3-6.3-6.5-6.2L163.8,110z" />
</svg>