<?xml version="1.0" encoding="UTF-8"?>
<svg clip-rule="evenodd" fill-rule="evenodd" stroke-linejoin="round" stroke-miterlimit="2" version="1.1" viewBox="0 0 48 48" xml:space="preserve" xmlns="http://www.w3.org/2000/svg"><path d="m36.364 22.257c-0.50118-0.65372-1.1113-1.2203-1.6779-1.7868-1.46-1.3074-3.1161-2.2444-4.5107-3.6172a10.852 10.852 0 0 1-1.8958-12.464c-2.0701 0.50118-3.8787 1.6343-5.4259 2.8764a17.215 17.215 0 0 0-5.208 19.394c0.08716 0.21791 0.17432 0.43581 0.17432 0.71909 0 0.47939-0.32686 0.91521-0.76267 1.0895-0.50118 0.21791-1.0242 0.08716-1.4382-0.26149a10.895 10.895 0 0 1-1.5036-11.527c-3.639 2.9635-5.622 7.9754-5.3387 12.704 0.13074 1.0895 0.26149 2.1791 0.63193 3.2686 0.30507 1.3074 0.89342 2.6149 1.5471 3.7698a15.253 15.253 0 0 0 10.808 7.0166c4.6632 0.58835 9.6532-0.26149 13.227-3.4865a12.911 12.911 0 0 0 3.334-14.382l-0.28328-0.56656c-0.4576-1.0024-1.6779-2.7456-1.6779-2.7456m-6.8858 13.728c-0.61014 0.52298-1.6125 1.0895-2.397 1.3074-2.4405 0.87162-4.8811-0.34865-6.3193-1.7868a6.0469 6.0469 0 0 0 4.5978-4.4671c0.37044-1.7432-0.32686-3.1814-0.61014-4.8593a8.0625 8.0625 0 0 1 0.37044-4.4889c0.41402 0.82804 0.84983 1.6561 1.3728 2.3098 1.6779 2.1791 4.3145 3.1378 4.8811 6.1014 0.08716 0.30507 0.13074 0.61014 0.13074 0.937a6.657 6.657 0 0 1-2.0265 4.9465z" fill="#ff7043" fill-rule="nonzero" stroke-width="1.0895"/></svg>
