<svg xmlns="http://www.w3.org/2000/svg" viewBox="0 0 256 256">
  <g fill="none" stroke-miterlimit="10" font-family="none" font-size="none" font-weight="none" style="mix-blend-mode:normal" text-anchor="none">
    <path fill="#ffab40" d="M172.44 94.67a42.2 42.2 0 0 0-28.89 11.55 42.2 42.2 0 0 0-28.88-11.55c-23.11 0-42.23 19.1-42.23 42.22v51.1h26.67v-55.55c0-8.44 7.11-15.55 15.56-15.55 8.44 0 15.55 7.11 15.55 15.55V188h26.67v-55.56c0-8.44 7.1-15.55 15.55-15.55 8.45 0 15.56 7.11 15.56 15.55V188h26.67v-51.11c0-23.11-19.12-42.22-42.23-42.22z"/>
    <path fill="#000" d="M48 95.56h4.44v70.22H48z"/>
    <path fill="#424242" d="M121.33 81.33c4.9 1.78 11.56 8.9 13.34 13.34-8 7.55-11.56 12.89-13.34 26.66-.44 4.9-4 7.56-8.89 4.45-13.77-8.45-26.66-8.9-35.55-8.9-4.45-4.44-2.22-16.44 0-22.21l26.67 4.44z"/>
    <path fill="#616161" d="M103.56 99.11H41.33L90.23 68h62.21z"/>
    <path fill="#424242" d="M56.89 156.89c0-9.78-3.11-17.78-6.67-17.78-3.55 0-6.66 8-6.66 17.78 0 9.78 3.1 17.78 6.66 17.78s6.67-8 6.67-17.78z"/>
  </g>
</svg>
