<?xml version="1.0" encoding="UTF-8"?>
<svg fill="none" version="1.1" viewBox="0 0 24 24" xmlns="http://www.w3.org/2000/svg">
 <g transform="matrix(.17343 0 0 .17343 .90067 2.233)">
  <path d="m59.675-0.0034858-0.73203 0.73203v26.33l0.73203 0.74329h8.7956l0.73203-0.74329v-26.33l-0.73203-0.73203h-8.7956zm-26.297 18.582-6.0251 6.0251v1.2163l9.2235 9.2235h6.3855l0.85591-0.85591v-6.3855l-9.2235-9.2235h-1.2163zm-32.648 32.603-0.73203 0.73203v8.8068l0.73203 0.73203h35.115l0.73203-0.73203v-8.8068l-0.73203-0.73203h-35.115zm91.436 0-0.73203 0.73203v8.8068l0.73203 0.73203h35.115l0.73202-0.73203v-8.8068l-0.73202-0.73203h-35.115zm-55.589 26.409-9.2235 9.2235v1.205l6.0251 6.0364h1.2163l9.2235-9.2235v-6.3968l-0.85591-0.84465h-6.3855zm23.098 7.2414-0.73203 0.74329v26.33l0.73203 0.73203h8.7956l0.73203-0.73203v-26.33l-0.73203-0.74329h-8.7956z" fill="#00bfa5"/>
  <path d="m80.459 74.605h-8.777l-0.7331-0.733v-20.546c0-3.6554-1.4364-6.4887-5.8447-6.5877-2.2686-0.0595-4.8641 0-7.6378 0.1089l-0.4161 0.426v26.589l-0.7331 0.733h-8.777l-0.7331-0.733v-35.098l0.7331-0.7331h19.753c7.6774 0 13.899 6.2212 13.899 13.899v21.943z" fill="#cfd8dc"/>
 </g>
</svg>
