<svg version="1.2" baseProfile="tiny-ps" xmlns="http://www.w3.org/2000/svg" viewBox="0 0 1509 962" width="1509" height="962">
	<title>Oracle_logo-svg copy-svg</title>
	<style>
		tspan { white-space:pre }
		.shp0 { fill: #c74634 } 
	</style>
	<path id="Layer" fill-rule="evenodd" class="shp0" d="M480.98 962C351.27 965.37 225.76 916.15 132.83 825.56C39.95 734.98 -12.45 610.65 -12.45 480.8C-12.45 351.01 39.95 226.68 132.83 136.05C225.76 45.46 351.27 -3.76 480.98 -0.39L1039.94 -0.39C1165.3 2.88 1284.41 54.99 1371.92 144.89C1459.43 234.79 1508.41 355.31 1508.41 480.8C1508.41 606.3 1459.43 726.87 1371.92 816.72C1284.41 906.62 1165.3 958.73 1039.94 962L480.98 962ZM1027.29 792.6C1111.58 795.29 1193.38 763.69 1253.94 704.99C1314.49 646.3 1348.72 565.53 1348.72 481.15C1348.72 396.76 1314.49 316 1253.94 257.25C1193.38 198.55 1111.58 166.96 1027.29 169.69L493.28 169.69C412.46 172.28 335.84 206.27 279.63 264.38C223.37 322.49 191.92 400.23 191.92 481.15C191.92 562.06 223.37 639.75 279.63 697.91C335.84 756.02 412.46 789.96 493.28 792.6L1027.29 792.6Z" />
</svg>