<?xml version="1.0" encoding="UTF-8"?>
<svg id="SVGRoot" version="1.1" viewBox="0 0 24 24" xml:space="preserve" xmlns="http://www.w3.org/2000/svg"><g transform="matrix(.77844 0 0 .77844 7.7439e-8 .74796)" fill="none"><g transform="matrix(.52858 0 0 .52858 3.0839 -.23398)"><path d="m40.973 52.535-8.8869-8.8366-0.1358 0.0194v-0.0969l-18.899-18.662 4.6569-4.4958-2.7359-15.697-12.981 16.084c-2.212 2.2285-2.6195 5.8523-1.0284 8.5265l8.1107 13.449c1.2418 2.0735 3.4926 3.3137 5.9181 3.2943l4.0166-0.0388z" fill="#29b6f6"/><path d="m45.823 20.541-1.7852-3.2943-0.9314-1.6859-0.3686-0.6589-0.0388 0.0388-4.8898-8.4684c-1.2224-2.1316-3.512-3.4494-5.9957-3.43l-4.2882 0.11626-12.787 0.03876c-2.4254 0.01938-4.6374 1.2984-5.8599 3.3719l-7.7809 15.425 13.912-17.266 18.24 20.037-3.2405 3.275 1.9404 15.677 0.0194-0.0388v0.0388h-0.0388l0.0388 0.0387 1.5135 1.4728 7.354 7.1894c0.3105 0.2907 0.815-0.0581 0.6015-0.4263l-4.5404-8.9335 7.9167-14.631 0.2522-0.2907c0.097-0.1163 0.194-0.2325 0.2717-0.3488 1.5523-2.1123 1.7657-4.9415 0.4851-7.2476z" fill="#b388ff"/><path d="m33.308 24.688-18.298-19.94 2.6001 15.619-4.6569 4.5152 18.957 18.816-1.7075-15.619z" fill="#eceff1"/></g></g></svg>
