<?xml version="1.0" encoding="UTF-8"?>
<svg version="1.1" viewBox="0 0 24 24" xml:space="preserve" xmlns="http://www.w3.org/2000/svg"><g transform="matrix(.93861 0 0 .93861 .73669 .73669)" fill="#0288d1"><path d="m4 6h-2v14c0 1.105 0.895 2 2 2h14v-2h-14z"/><path d="m20 2h-12c-1.105 0-2 0.895-2 2v12c0 1.105 0.895 2 2 2h12c1.105 0 2-0.895 2-2v-12c0-1.105-0.895-2-2-2zm-6.823 10.769c0.609 0.66 1.457 1.003 2.563 1.011l1.14-0.103c0.369-0.069 0.677-0.163 0.934-0.274l0.36 2.091c-0.223 0.12-0.583 0.231-1.063 0.334-0.488 0.112-1.062 0.172-1.722 0.172-1.894-0.034-3.317-0.6-4.269-1.68-0.977-1.089-1.44-2.469-1.44-4.14 0.034-1.98 0.617-3.497 1.749-4.56 1.097-1.071 2.502-1.62 4.2-1.62 0.643 0 1.2 0.06 1.663 0.163s0.806 0.214 1.029 0.343l-0.515 2.134-0.891-0.291c-0.343-0.086-0.746-0.129-1.2-0.129-0.986-9e-3 -1.809 0.309-2.451 0.943-0.651 0.626-0.977 1.586-1.011 2.863 7e-3 1.165 0.316 2.074 0.924 2.743z"/></g></svg>
