<?xml version="1.0" encoding="UTF-8"?>
<svg fill="none" version="1.1" viewBox="0 0 24 24" xmlns="http://www.w3.org/2000/svg">
 <path d="m5.918 8.1015c-2.153 0-3.8984 1.7454-3.8984 3.8984 0 2.1531 1.7454 3.8984 3.8984 3.8984 1.2305 0 2.3265-0.57041 3.041-1.4609 0.00164-0.0021 0.00231-0.0039 0.00391-0.0059l0.00195 2e-3c0.03742-0.047 0.072182-0.09388 0.10742-0.14258 0.14952-0.19584 0.25787-0.36676 0.35938-0.60156 0.010265-0.02131 0.01941-0.04294 0.029297-0.06445 0.0099-0.0217 0.019787-0.04451 0.029297-0.06641h0.13086c-0.02822 0.1165-0.068297 0.23196-0.11719 0.34766-0.10896 0.2337-0.24325 0.48168-0.38086 0.70508-0.00226 0.0035-0.0036 0.0062-0.00586 0.0098 0.36518 0.4018 0.81017 0.72356 1.3066 0.94336 0.4965 0.2198 1.0333 0.33368 1.5762 0.33398 0.5429-2.99e-4 1.0797-0.11418 1.5762-0.33398 0.4965-0.2198 0.94144-0.54156 1.3066-0.94336-0.0022-0.0036-0.0037-0.0063-0.0059-0.0098-0.1377-0.2234-0.27391-0.47128-0.38281-0.70508-0.0489-0.1156-0.08899-0.23116-0.11719-0.34766h0.13086c0.02275 0.05206 0.04539 0.10346 0.07031 0.1543 0.0985 0.22254 0.2032 0.38891 0.34766 0.57812 0.0074 0.01017 0.016 0.01918 0.02344 0.0293 0.0028 0.0038 5e-3 8e-3 0.0078 0.01172 0.02519 0.03406 0.0518 0.06649 0.07813 0.09961 3.2e-4 4.01e-4 -3.2e-4 0.0016 0 2e-3l2e-3 2e-3c0.71444 0.89175 1.8134 1.4629 3.0449 1.4629 2.153 0 3.8984-1.7453 3.8984-3.8984 2e-6 -2.1531-1.7454-3.8985-3.8984-3.8985-0.5459 4e-5 -1.0872 0.11406-1.5859 0.33594-0.4987 0.22188-0.94505 0.54576-1.3105 0.95117 0.2388 0.38575 0.41661 0.67692 0.53711 0.97461h-0.13672c-0.2381-0.38876-0.31902-0.54305-0.54492-0.80273-0.71449-0.88982-1.8111-1.459-3.041-1.459-1.2298 0-2.3265 0.56931-3.041 1.459-0.22591 0.25968-0.30884 0.41397-0.54688 0.80273h-0.13477c0.12054-0.29769 0.29638-0.58886 0.53516-0.97461-0.3655-0.40541-0.81183-0.72929-1.3105-0.95117-0.49873-0.22188-1.0381-0.3359-1.584-0.33594zm0 1.7148c1.2057 0 2.1836 0.9779 2.1836 2.1836s-0.97788 2.1836-2.1836 2.1836-2.1836-0.9779-2.1836-2.1836c0-1.2057 0.97788-2.1836 2.1836-2.1836zm6.082 0c1.2057 0 2.1836 0.9779 2.1836 2.1836s-0.97789 2.1836-2.1836 2.1836-2.1836-0.9779-2.1836-2.1836c0-0.0376 8.31e-5 -0.07413 0.00195-0.11133 0.058483-1.1536 1.0136-2.0723 2.1816-2.0723zm6.082 0c1.2057 0 2.1816 0.9779 2.1816 2.1836s-0.97594 2.1836-2.1816 2.1836c-1.2058 0-2.1836-0.9779-2.1836-2.1836 0-1.2057 0.9778-2.1836 2.1836-2.1836z" fill="#00bfa5"/>
</svg>
