<?xml version="1.0" encoding="UTF-8"?>
<svg version="1.1" viewBox="0 0 24 24" xmlns="http://www.w3.org/2000/svg">
 <path d="m11.985 2.949c-3.2686 0-5.9088 2.7452-5.936 6.12-2.3319 0.83443-4.0218 3.1163-4.0218 5.8127 0 3.3925 2.6631 6.1693 5.9474 6.1693 1.5132-0.003403 2.943-0.6249 4.0256-1.6751 1.0808 1.0518 2.5127 1.6727 4.0256 1.6751 3.2785 0 5.9474-2.7703 5.9474-6.1693v-0.0019c-6.72e-4 -1.1445-0.31399-2.2598-0.89163-3.2364-0.43494-0.63473-0.89673-1.1072-1.1914-1.3792-0.03146-0.02904-0.06176-0.05715-0.08917-0.08158-0.0726-0.06472-0.12511-0.10921-0.16315-0.14038-0.0062-0.0051-0.0127-0.01-0.01897-0.01512-0.02477-0.02009-0.03794-0.030351-0.03794-0.030351-0.49867-0.4025-1.054-0.72857-1.6656-0.9448-0.03656-3.3603-2.6689-6.1029-5.9303-6.1029zm0.0075 1.9369c2.2414 0 4.0712 1.8943 4.0712 4.2381v0.0019c0.0042 1.3595-0.63161 2.6416-1.7169 3.4603h-0.0019c-0.41157 0.31483-0.50789 0.90024-0.21816 1.3299l0.0019 0.0019c0.17897 0.26164 0.46963 0.40977 0.76643 0.40977 0.19723 0 0.38858-0.06378 0.54636-0.18212 1.0392-0.77896 1.7681-1.8817 2.1589-3.115 1.4673 0.65696 2.5099 2.1367 2.5099 3.8549-0.0054 2.3372-1.8354 4.2343-4.0844 4.2343-2.2407 0-4.0701-1.8952-4.0712-4.2381v-0.0019c0.0071-0.52028-0.41104-0.95235-0.93147-0.96372h-0.0076c-0.52309 8e-3 -0.94525 0.44279-0.93527 0.96562v0.0019c6.51e-4 1.0806 0.31644 2.077 0.78729 2.9614-0.75007 0.80468-1.7901 1.2782-2.8931 1.2805-2.2422 0-4.075-1.8972-4.075-4.24 0-2.342 1.8328-4.2381 4.075-4.2381 0.48612 0 0.95676 0.08885 1.4114 0.258 0.00347 0.0015 0.00265 0.0018 0.00758 0.0038 0.00381 0.0015 0.010377 0.0022 0.015176 0.0038l0.00569 0.0019 0.00758 0.0038c0.069332 0.02507 0.15396 0.06137 0.22955 0.09864 0.080488 0.03969 0.15665 0.09009 0.15556 0.08917 0.3871 0.34835 0.9956 0.29796 1.3204-0.11003 0.32904-0.40265 0.28467-0.999-0.10244-1.3469l-0.0019-0.0019c-0.36238-0.31808-0.86428-0.50421-0.99396-0.55208h-0.0019c-0.65367-0.24772-1.3479-0.37457-2.047-0.37373h-0.00949c0.20531-2.1496 1.9091-3.8359 4.0218-3.8359z" color="#000000" fill="#ef6c00"/>
</svg>
