<?xml version="1.0" encoding="UTF-8"?>
<svg fill="none" version="1.1" viewBox="0 0 24 24" xmlns="http://www.w3.org/2000/svg">
 <path d="m14.69 5.7494c0 0.70591-0.26918 1.3049-0.80767 1.7968s-1.1941 0.73797-1.9666 0.73797c-0.79595 0-1.4633-0.24599-2.0018-0.73797-0.53845-0.49198-0.80768-1.0909-0.80768-1.7968 0-0.70585 0.26923-1.3048 0.80768-1.7968 0.53847-0.49198 1.2058-0.73797 2.0018-0.73797 0.77253 0 1.4282 0.24599 1.9666 0.73797 0.53848 0.49198 0.80767 1.0909 0.80767 1.7968zm-5.6189 8.8833c0-0.70588 0.26923-1.3048 0.80775-1.7968 0.56183-0.51342 1.2409-0.77007 2.0368-0.77007 0.7491 0 1.4047 0.25665 1.9666 0.77007 0.56191 0.49198 0.88966 1.0482 0.98326 1.6684 0.1873 1.1551-0.04673 2.2995-0.70236 3.4332-0.63208 1.1337-1.5452 2-2.7393 2.5989-0.65551 0.34228-1.1939 0.33162-1.6154-0.0321-0.39803-0.34228-0.28095-0.74863 0.35121-1.2192 0.35118-0.23533 0.64379-0.53485 0.87795-0.89845 0.23416-0.36372 0.3862-0.73797 0.45649-1.123 0.02343-0.17114-0.05857-0.25665-0.24576-0.25665-0.46832-0.02144-0.94824-0.25677-1.4399-0.70599-0.49167-0.44911-0.73747-1.0053-0.73747-1.6684z" fill="#b0bec5" stroke-width="1.1714"/>
</svg>
