<?xml version="1.0" encoding="UTF-8"?>
<svg fill="none" version="1.1" viewBox="0 0 220 220" xmlns="http://www.w3.org/2000/svg">
 <g transform="translate(-.13312 3.9738)">
  <g transform="matrix(.87246 0 0 .87246 14.047 13.523)">
   <g>
    <path transform="matrix(.96 0 0 .96 4.8 0)" d="m117.44 167.89c0-27.615 22.386-50 50-50s50 22.385 50 50c0 27.614-22.386 50-50 50s-50-22.386-50-50z" fill="#78909c"/>
    <path transform="matrix(.96 0 0 .96 4.8 0)" d="m117.44 53c0-27.614 22.386-50 50-50s50 22.386 50 50v45c0 2.761-2.239 5-5 5h-90c-2.761 0-5-2.239-5-5z" fill="#b0bec5"/>
    <path transform="matrix(.96 0 0 .96 4.8 0)" d="m102 167.89c0 27.614-22.386 50-50 50s-50-22.386-50-50l1e-5 -45c0-2.762 2.2386-5 5-5h90c2.7614 0 5 2.238 5 5z" fill="#546e7a"/>
   </g>
  </g>
 </g>
</svg>
