<svg width="220" height="90" viewBox="0 0 220 90" fill="none" xmlns="http://www.w3.org/2000/svg">
<rect width="220" height="90" rx="10" fill="#F9F9F9"/>
<path d="M69.136 25.32C70.704 25.32 71.92 26.248 71.92 28.072C71.92 29.864 70.704 30.792 69.136 30.792H66.704V34.344H65.584V25.32H69.136ZM66.704 29.832H69.008C69.968 29.832 70.8 29.256 70.8 28.072C70.8 26.856 70 26.312 69.008 26.312H66.704V29.832Z" fill="#0080FF"/>
<path d="M80.176 31.304C80.176 33.256 78.8 34.504 77.008 34.504C75.216 34.504 73.84 33.256 73.84 31.304C73.84 29.352 75.216 28.104 77.008 28.104C78.8 28.104 80.176 29.352 80.176 31.304ZM74.896 31.304C74.896 32.744 75.824 33.608 77.008 33.608C78.192 33.608 79.12 32.744 79.12 31.304C79.12 29.864 78.192 29.032 77.008 29.032C75.824 29 74.896 29.864 74.896 31.304Z" fill="#0080FF"/>
<path d="M88.368 34.376L86.704 29.96L85.04 34.376H84.208L81.872 28.2H83.024L84.688 32.68L86.352 28.2H87.088L88.784 32.68L90.448 28.2H91.568L89.2 34.376H88.368Z" fill="#0080FF"/>
<path d="M94.32 31.688C94.384 32.872 95.152 33.576 96.24 33.576C97.136 33.576 97.776 33.16 97.968 32.488L98.992 32.552C98.736 33.672 97.68 34.504 96.24 34.504C94.48 34.504 93.168 33.32 93.168 31.304C93.168 29.288 94.448 28.104 96.208 28.104C97.968 28.104 99.024 29.288 99.024 31.112V31.688H94.32V31.688ZM94.32 30.856H98.032C98 29.768 97.392 29.032 96.24 29.032C95.152 29 94.384 29.64 94.32 30.856Z" fill="#0080FF"/>
<path d="M104.688 29.128C103.6 29.128 102.896 29.864 102.896 30.824V34.376H101.872V28.2H102.896V29.128C103.12 28.616 103.696 28.136 104.72 28.136V29.128H104.688Z" fill="#0080FF"/>
<path d="M107.664 31.688C107.728 32.872 108.496 33.576 109.584 33.576C110.48 33.576 111.12 33.16 111.312 32.488L112.336 32.552C112.08 33.672 111.024 34.504 109.584 34.504C107.824 34.504 106.512 33.32 106.512 31.304C106.512 29.288 107.792 28.104 109.552 28.104C111.312 28.104 112.368 29.288 112.368 31.112V31.688H107.664V31.688ZM107.664 30.856H111.376C111.344 29.768 110.736 29.032 109.584 29.032C108.528 29 107.728 29.64 107.664 30.856Z" fill="#0080FF"/>
<path d="M119.952 34.376V33.384C119.6 34.024 118.8 34.504 117.776 34.504C116.08 34.504 114.8 33.288 114.8 31.304C114.8 29.32 116.08 28.104 117.776 28.104C118.8 28.104 119.568 28.552 119.888 29.128V25H120.912V34.408H119.952V34.376ZM115.856 31.304C115.856 32.776 116.752 33.608 117.936 33.608C119.088 33.608 119.92 32.904 119.92 31.496V31.144C119.92 29.768 119.088 29.032 117.936 29.032C116.752 29 115.856 29.832 115.856 31.304Z" fill="#0080FF"/>
<path d="M129.136 29.128C129.488 28.52 130.224 28.104 131.28 28.104C132.976 28.104 134.256 29.32 134.256 31.304C134.256 33.288 132.976 34.504 131.28 34.504C130.224 34.504 129.456 34.024 129.104 33.384V34.376H128.112V25H129.136V29.128V29.128ZM129.168 31.112V31.464C129.168 32.872 130 33.576 131.152 33.576C132.336 33.576 133.232 32.776 133.232 31.272C133.232 29.8 132.336 29 131.152 29C130 29 129.168 29.736 129.168 31.112Z" fill="#0080FF"/>
<path d="M136.976 37.448L138.448 34.024L135.984 28.2H137.136L138.992 32.84L140.848 28.2H142L138.096 37.448H136.976Z" fill="#0080FF"/>
<path d="M33.968 65V57.256C42.16 57.256 48.528 49.128 45.392 40.52C44.24 37.32 41.68 34.792 38.48 33.608C29.84 30.472 21.744 36.808 21.744 45.032L14 45.064C14 31.976 26.64 21.8 40.336 26.088C46.32 27.944 51.088 32.712 52.944 38.696C57.2 52.392 47.024 65 33.968 65Z" fill="#0080FF"/>
<path fill-rule="evenodd" clip-rule="evenodd" d="M33.968 57.288H26.288V49.608H33.968V57.288Z" fill="#0080FF"/>
<path fill-rule="evenodd" clip-rule="evenodd" d="M26.256 63.24H20.336V57.288H26.288V63.24H26.256Z" fill="#0080FF"/>
<path fill-rule="evenodd" clip-rule="evenodd" d="M20.368 57.288H15.376V52.328H20.336V57.288H20.368Z" fill="#0080FF"/>
<path d="M77.648 41.128C75.888 39.912 73.68 39.272 71.088 39.272H65.488V57.032H71.088C73.648 57.032 75.856 56.36 77.648 55.08C78.608 54.408 79.376 53.448 79.92 52.232C80.464 51.048 80.72 49.608 80.72 48.04C80.72 46.472 80.464 45.064 79.92 43.88C79.376 42.728 78.608 41.768 77.648 41.128ZM68.752 42.28H70.512C72.464 42.28 74.064 42.664 75.312 43.432C76.656 44.264 77.36 45.8 77.36 48.04C77.36 50.344 76.656 51.976 75.312 52.872C74.128 53.64 72.528 54.024 70.544 54.024H68.752V42.28Z" fill="#0080FF"/>
<path d="M84.592 39.048C84.048 39.048 83.6 39.24 83.216 39.624C82.832 39.976 82.64 40.456 82.64 40.968C82.64 41.512 82.832 41.96 83.216 42.344C83.6 42.728 84.048 42.92 84.592 42.92C85.136 42.92 85.584 42.728 85.968 42.344C86.352 41.96 86.544 41.512 86.544 40.968C86.544 40.424 86.352 39.976 85.968 39.624C85.584 39.24 85.136 39.048 84.592 39.048Z" fill="#0080FF"/>
<path d="M86.128 44.52H82.992V57.032H86.128V44.52Z" fill="#0080FF"/>
<path d="M97.584 45.576C96.624 44.744 95.568 44.232 94.416 44.232C92.688 44.232 91.248 44.84 90.128 46.024C89.008 47.208 88.432 48.712 88.432 50.536C88.432 52.296 89.008 53.8 90.096 55.016C91.216 56.2 92.656 56.776 94.416 56.776C95.632 56.776 96.688 56.424 97.52 55.784V56.04C97.52 57.064 97.232 57.896 96.688 58.44C96.144 58.984 95.376 59.272 94.416 59.272C92.976 59.272 92.048 58.696 90.928 57.192L88.784 59.24L88.848 59.336C89.296 59.976 90.032 60.616 90.96 61.224C91.888 61.832 93.072 62.12 94.448 62.12C96.304 62.12 97.84 61.544 98.96 60.392C100.08 59.24 100.656 57.704 100.656 55.848V44.52H97.552V45.576H97.584ZM96.752 52.968C96.208 53.608 95.504 53.896 94.576 53.896C93.68 53.896 92.976 53.608 92.432 52.968C91.888 52.36 91.632 51.528 91.632 50.504C91.632 49.48 91.92 48.648 92.432 48.04C92.976 47.432 93.68 47.112 94.576 47.112C95.472 47.112 96.176 47.432 96.752 48.04C97.296 48.68 97.584 49.512 97.584 50.504C97.584 51.528 97.296 52.36 96.752 52.968Z" fill="#0080FF"/>
<path d="M106.512 44.52H103.376V57.032H106.512V44.52Z" fill="#0080FF"/>
<path d="M104.976 39.048C104.432 39.048 103.984 39.24 103.6 39.624C103.216 39.976 103.024 40.456 103.024 40.968C103.024 41.512 103.216 41.96 103.6 42.344C103.984 42.728 104.432 42.92 104.976 42.92C105.52 42.92 105.968 42.728 106.352 42.344C106.736 41.96 106.928 41.512 106.928 40.968C106.928 40.424 106.736 39.976 106.352 39.624C105.968 39.24 105.52 39.048 104.976 39.048Z" fill="#0080FF"/>
<path d="M113.424 41.16H110.32V44.52H108.528V47.4H110.32V52.584C110.32 54.216 110.64 55.368 111.28 56.04C111.92 56.712 113.072 57.064 114.672 57.064C115.184 57.064 115.696 57.032 116.208 57H116.336V54.12L115.248 54.184C114.512 54.184 114 54.056 113.744 53.8C113.488 53.544 113.392 52.968 113.392 52.136V47.4H116.336V44.52H113.392V41.16H113.424Z" fill="#0080FF"/>
<path d="M134.256 39.272H131.12V57.032H134.256V39.272Z" fill="#0080FF"/>
<path d="M166.096 52.584C165.52 53.224 164.944 53.768 164.528 54.056C164.08 54.344 163.536 54.472 162.896 54.472C161.968 54.472 161.232 54.12 160.624 53.448C160.016 52.744 159.728 51.88 159.728 50.792C159.728 49.704 160.016 48.84 160.624 48.168C161.232 47.464 161.968 47.144 162.896 47.144C163.92 47.144 164.976 47.784 165.904 48.872L167.984 46.888C166.64 45.128 164.88 44.296 162.832 44.296C161.104 44.296 159.6 44.936 158.384 46.152C157.168 47.4 156.56 48.968 156.56 50.824C156.56 52.68 157.168 54.248 158.384 55.496C159.6 56.744 161.104 57.384 162.832 57.384C165.104 57.384 166.96 56.392 168.208 54.6L166.096 52.584Z" fill="#0080FF"/>
<path d="M179.024 46.28C178.576 45.672 177.968 45.16 177.2 44.776C176.464 44.424 175.568 44.232 174.608 44.232C172.848 44.232 171.408 44.872 170.32 46.152C169.264 47.432 168.752 49 168.752 50.856C168.752 52.744 169.328 54.312 170.48 55.528C171.632 56.712 173.168 57.32 175.024 57.32C177.136 57.32 178.896 56.456 180.208 54.76L180.272 54.664L178.224 52.68C178.032 52.904 177.776 53.16 177.52 53.416C177.2 53.704 176.912 53.928 176.592 54.088C176.112 54.312 175.6 54.44 174.992 54.44C174.128 54.44 173.392 54.184 172.848 53.672C172.336 53.192 172.016 52.552 171.952 51.784H180.304L180.336 50.632C180.336 49.832 180.24 49.032 180.016 48.296C179.792 47.592 179.472 46.888 179.024 46.28ZM172.144 49.224C172.304 48.616 172.56 48.136 172.976 47.752C173.392 47.336 173.968 47.112 174.64 47.112C175.408 47.112 175.984 47.336 176.4 47.752C176.784 48.136 176.976 48.648 177.04 49.224H172.144Z" fill="#0080FF"/>
<path d="M191.12 45.48C190.16 44.68 188.848 44.264 187.184 44.264C186.128 44.264 185.168 44.488 184.272 44.936C183.44 45.352 182.64 46.056 182.128 46.952L182.16 46.984L184.176 48.904C185.008 47.592 185.936 47.112 187.152 47.112C187.824 47.112 188.368 47.304 188.784 47.624C189.2 47.976 189.392 48.424 189.392 48.968V49.576C188.624 49.352 187.824 49.224 187.088 49.224C185.52 49.224 184.24 49.608 183.312 50.312C182.352 51.048 181.872 52.104 181.872 53.448C181.872 54.632 182.288 55.592 183.088 56.296C183.92 56.968 184.944 57.32 186.128 57.32C187.312 57.32 188.464 56.84 189.456 56.008V57.032H192.56V49C192.56 47.464 192.08 46.28 191.12 45.48ZM185.52 52.264C185.872 52.008 186.384 51.88 187.024 51.88C187.792 51.88 188.592 52.04 189.424 52.328V53.544C188.752 54.184 187.824 54.504 186.704 54.504C186.16 54.504 185.744 54.376 185.456 54.152C185.168 53.928 185.04 53.608 185.04 53.256C185.008 52.84 185.168 52.52 185.52 52.264Z" fill="#0080FF"/>
<path d="M204.688 45.704C203.824 44.712 202.576 44.232 201.008 44.232C199.76 44.232 198.736 44.584 198 45.288V44.52H194.896V57.032H198.032V50.152C198.032 49.192 198.256 48.456 198.704 47.912C199.152 47.368 199.76 47.112 200.56 47.112C201.264 47.112 201.808 47.336 202.224 47.816C202.64 48.296 202.832 48.968 202.832 49.8V57.064H205.968V49.8C206 48.072 205.552 46.696 204.688 45.704Z" fill="#0080FF"/>
<path d="M127.152 45.48C126.192 44.68 124.88 44.264 123.216 44.264C122.16 44.264 121.2 44.488 120.304 44.936C119.472 45.352 118.672 46.056 118.16 46.952L118.192 46.984L120.208 48.904C121.04 47.592 121.968 47.112 123.184 47.112C123.856 47.112 124.4 47.304 124.816 47.624C125.232 47.976 125.424 48.424 125.424 48.968V49.576C124.656 49.352 123.856 49.224 123.12 49.224C121.552 49.224 120.272 49.608 119.344 50.312C118.384 51.048 117.904 52.104 117.904 53.448C117.904 54.632 118.32 55.592 119.12 56.296C119.952 56.968 120.976 57.32 122.16 57.32C123.344 57.32 124.496 56.84 125.488 56.008V57.032H128.592V49C128.624 47.464 128.144 46.28 127.152 45.48ZM121.584 52.264C121.936 52.008 122.448 51.88 123.088 51.88C123.856 51.88 124.656 52.04 125.488 52.328V53.544C124.816 54.184 123.888 54.504 122.768 54.504C122.224 54.504 121.808 54.376 121.52 54.152C121.232 53.928 121.104 53.608 121.104 53.256C121.072 52.84 121.232 52.52 121.584 52.264Z" fill="#0080FF"/>
<path d="M145.712 57.32C140.656 57.32 136.56 53.224 136.56 48.168C136.56 43.112 140.656 39.016 145.712 39.016C150.768 39.016 154.864 43.112 154.864 48.168C154.864 53.224 150.768 57.32 145.712 57.32ZM145.712 42.216C142.448 42.216 139.792 44.872 139.792 48.136C139.792 51.4 142.448 54.056 145.712 54.056C148.976 54.056 151.632 51.4 151.632 48.136C151.632 44.872 148.976 42.216 145.712 42.216Z" fill="#0080FF"/>
</svg>
