<svg width="220" height="90" viewBox="0 0 220 90" fill="none" xmlns="http://www.w3.org/2000/svg">
<rect width="220" height="90" rx="10" fill="#F9F9F9"/>
<path d="M155.989 39.5757C155.989 39.5786 155.989 39.5815 155.989 39.5844C155.989 39.8378 156.195 40.0473 156.449 40.0513C156.452 40.0514 156.455 40.0514 156.457 40.0514C156.711 40.0514 156.921 39.8453 156.925 39.5921L156.925 39.5833C156.925 39.3301 156.719 39.1206 156.465 39.1164C156.462 39.1163 156.459 39.1163 156.456 39.1163C156.203 39.1163 155.993 39.3224 155.989 39.5757V39.5757Z" fill="#5FB963"/>
<path d="M155.292 26.2999C154.977 26.9778 154.689 27.9299 154.434 29.1292C153.932 31.4891 153.614 34.5869 153.561 37.6286C153.505 40.8586 153.73 45.2953 154.266 47.8497C153.991 48.0219 153.764 48.2599 153.605 48.5421C153.445 48.8244 153.359 49.1419 153.354 49.4658C153.349 49.7609 153.411 50.0533 153.536 50.3209C153.66 50.5886 153.844 50.8244 154.073 51.0108L152.835 53.6475C152.803 53.716 152.787 53.791 152.789 53.8666C152.791 53.9422 152.811 54.0164 152.846 54.0832L155.68 59.4202C155.68 59.421 155.681 59.4218 155.681 59.4227L155.683 59.4248C155.683 59.426 155.684 59.427 155.685 59.4283C155.867 59.7647 156.351 59.7703 156.54 59.4349L159.558 54.2002C159.639 54.0612 159.645 53.8912 159.576 53.7464L158.337 51.1605C158.602 50.9861 158.82 50.7498 158.972 50.4722C159.125 50.1947 159.207 49.8841 159.212 49.5676C159.217 49.2439 159.141 48.9242 158.992 48.6368C158.843 48.3495 158.625 48.1034 158.357 47.9206C158.982 45.386 159.362 40.9604 159.419 37.7308C159.472 34.689 159.262 31.5823 158.843 29.2062C158.631 27.9986 158.376 27.0372 158.085 26.3486C157.945 26.0187 157.521 25.0141 156.712 25.0001C155.902 24.9861 155.443 25.9751 155.292 26.2999H155.292V26.2999ZM158.584 53.9359L156.635 57.3156L156.694 53.9146C156.693 53.6477 156.473 53.4287 156.206 53.4287C155.946 53.4287 155.729 53.6371 155.718 53.8972L155.659 57.2985L153.823 53.8414L154.948 51.4449C157.461 51.4886 154.888 51.4439 157.412 51.488L158.584 53.9359V53.9359ZM158.236 49.5504C158.227 50.0856 157.778 50.5184 157.242 50.5093L155.289 50.4752C154.754 50.4653 154.322 50.0179 154.33 49.4832C154.338 49.0754 154.6 48.7131 154.985 48.5782C155.27 48.4797 155.328 48.5424 157.276 48.5583C157.824 48.5679 158.245 49.0226 158.236 49.5504H158.236Z" fill="#5FB963"/>
<path d="M156.076 32.7003L155.989 37.6981L155.989 37.7068C155.989 37.981 156.215 38.2067 156.489 38.2067C156.761 38.2067 156.985 37.9864 156.99 37.7155L157.077 32.7178V32.7134C157.077 32.4392 156.851 32.2136 156.577 32.2136C156.307 32.2136 156.084 32.4311 156.076 32.7002V32.7003Z" fill="#5FB963"/>
<path d="M76.8345 52.8828C76.8345 54.0869 76.5242 55.1686 75.9035 56.1283C75.2828 57.0879 74.3744 57.8392 73.1783 58.3824C71.9822 58.9255 70.5641 59.1971 68.9241 59.1971C66.9578 59.1971 65.3358 58.826 64.0582 58.0836C63.152 57.5495 62.4158 56.8366 61.8495 55.945C61.2831 55.0532 61 54.1864 61 53.3445C61 52.8557 61.1699 52.437 61.5097 52.0885C61.8495 51.74 62.2821 51.5657 62.8077 51.5657C63.2336 51.5657 63.5938 51.7015 63.8883 51.973C64.1827 52.2447 64.4342 52.6475 64.6426 53.1816C64.8963 53.8153 65.1704 54.3449 65.4649 54.7704C65.7594 55.1958 66.1739 55.5466 66.7086 55.8227C67.2432 56.0988 67.9454 56.2369 68.8153 56.2369C70.0114 56.2369 70.9832 55.9585 71.7308 55.4018C72.4783 54.845 72.8521 54.1502 72.8521 53.3174C72.8521 52.6565 72.6505 52.1202 72.2472 51.7082C71.844 51.2964 71.323 50.9818 70.6842 50.7645C70.0453 50.5472 69.1913 50.3164 68.1221 50.072C66.6904 49.737 65.4921 49.3455 64.5271 48.8974C63.562 48.4493 62.7964 47.8382 62.23 47.0642C61.6637 46.2902 61.3806 45.3284 61.3806 44.1787C61.3806 43.0833 61.6796 42.1101 62.2776 41.2592C62.8756 40.4082 63.741 39.7541 64.8737 39.297C66.0063 38.8398 67.3383 38.6112 68.8697 38.6112C70.0929 38.6112 71.1509 38.7628 72.0434 39.0661C72.9359 39.3694 73.6767 39.7723 74.2656 40.2747C74.8546 40.7771 75.285 41.3044 75.5569 41.8566C75.8287 42.4089 75.9646 42.9475 75.9646 43.4726C75.9646 43.9523 75.7947 44.3846 75.4549 44.7693C75.1151 45.1541 74.6915 45.3464 74.1841 45.3464C73.722 45.3464 73.3708 45.231 73.1307 45.0002C72.8906 44.7693 72.6301 44.3914 72.3492 43.8663C71.9867 43.115 71.5518 42.5288 71.0444 42.1078C70.5369 41.6869 69.7214 41.4764 68.5978 41.4764C67.5558 41.4764 66.7154 41.705 66.0766 42.1622C65.4377 42.6193 65.1183 43.1693 65.1183 43.812C65.1183 44.2104 65.2271 44.5544 65.4445 44.8441C65.662 45.1337 65.961 45.3827 66.3416 45.5909C66.7222 45.7991 67.1072 45.9621 67.4969 46.0797C67.8865 46.1974 68.5299 46.3694 69.4269 46.5958C70.5505 46.8583 71.5677 47.148 72.4783 47.4648C73.389 47.7816 74.1637 48.1664 74.8025 48.619C75.4413 49.0717 75.9397 49.6442 76.2976 50.3368C76.6555 51.0293 76.8345 51.878 76.8345 52.8828V52.8828ZM83.712 46.2291V56.943C83.712 57.6853 83.5353 58.2466 83.1819 58.6268C82.8285 59.007 82.38 59.1971 81.8363 59.1971C81.2926 59.1971 80.8509 59.0025 80.5111 58.6132C80.1713 58.2239 80.0014 57.6672 80.0014 56.943V46.3377C80.0014 45.6045 80.1713 45.0523 80.5111 44.6811C80.8509 44.3099 81.2926 44.1243 81.8363 44.1243C82.38 44.1243 82.8285 44.3099 83.1819 44.6811C83.5353 45.0523 83.712 45.5683 83.712 46.2291ZM81.8771 42.3998C81.3606 42.3998 80.9188 42.2414 80.5519 41.9245C80.1849 41.6077 80.0014 41.1596 80.0014 40.5802C80.0014 40.0551 80.1894 39.6229 80.5655 39.2834C80.9415 38.9439 81.3787 38.7742 81.8771 38.7742C82.3573 38.7742 82.7832 38.9281 83.1547 39.2358C83.5262 39.5437 83.712 39.9918 83.712 40.5802C83.712 41.1505 83.5307 41.5964 83.1683 41.9177C82.8058 42.2391 82.3755 42.3998 81.8771 42.3998V42.3998ZM101.191 46.8402V57.6084C101.191 58.8396 101.06 59.8987 100.797 60.7859C100.534 61.6731 100.113 62.4063 99.5329 62.9857C98.953 63.5651 98.1941 63.9951 97.2563 64.2757C96.3184 64.5564 95.1518 64.6967 93.7564 64.6967C92.4787 64.6967 91.337 64.5178 90.3312 64.1603C89.3254 63.8027 88.5507 63.341 88.007 62.7752C87.4633 62.2094 87.1915 61.6278 87.1915 61.0303C87.1915 60.5777 87.3455 60.2088 87.6536 59.9236C87.9617 59.6384 88.3332 59.4959 88.7682 59.4959C89.3118 59.4959 89.7876 59.7358 90.1953 60.2155C90.3986 60.4646 90.6047 60.7114 90.8137 60.9556C91.0267 61.2046 91.2623 61.4173 91.5205 61.5939C91.7787 61.7704 92.0891 61.9016 92.4515 61.9876C92.814 62.0736 93.2308 62.1166 93.702 62.1166C94.6625 62.1166 95.4078 61.9831 95.9379 61.716C96.468 61.449 96.8395 61.0756 97.0524 60.5958C97.2653 60.116 97.3899 59.6022 97.4262 59.0545C97.4624 58.5069 97.4896 57.6265 97.5077 56.4134C96.9369 57.21 96.2777 57.8166 95.5301 58.233C94.7826 58.6494 93.8923 58.8576 92.8593 58.8576C91.6179 58.8576 90.5328 58.5408 89.604 57.9071C88.6753 57.2734 87.9617 56.3863 87.4633 55.2456C86.965 54.105 86.7158 52.7878 86.7158 51.2941C86.7158 50.1806 86.8676 49.1758 87.1711 48.2796C87.4747 47.3833 87.9073 46.6274 88.4692 46.0118C89.0309 45.3963 89.6788 44.9323 90.4128 44.62C91.1467 44.3076 91.9532 44.1515 92.8321 44.1515C93.8832 44.1515 94.7939 44.3529 95.5641 44.7558C96.3343 45.1586 97.0502 45.7901 97.7116 46.65V46.1476C97.7116 45.5049 97.8702 45.007 98.1873 44.6539C98.5045 44.3009 98.9122 44.1243 99.4106 44.1243C100.126 44.1243 100.602 44.3575 100.838 44.8237C101.073 45.2899 101.191 45.9621 101.191 46.8402V46.8402ZM90.44 51.5385C90.44 53.0413 90.7684 54.1774 91.4254 54.9469C92.0823 55.7164 92.9318 56.1011 93.9738 56.1011C94.59 56.1011 95.1722 55.9359 95.7204 55.6054C96.2686 55.275 96.7149 54.7771 97.0592 54.1118C97.4035 53.4464 97.5757 52.6384 97.5757 51.6879C97.5757 50.1761 97.2427 48.9992 96.5767 48.1573C95.9107 47.3154 95.034 46.8945 93.9467 46.8945C92.8865 46.8945 92.037 47.2973 91.3982 48.103C90.7594 48.9087 90.44 50.0539 90.44 51.5385V51.5385ZM111.929 55.8567L108.735 43.1738V56.9158C108.735 57.6763 108.565 58.2466 108.225 58.6268C107.885 59.007 107.434 59.1971 106.873 59.1971C106.329 59.1971 105.885 59.0093 105.541 58.6336C105.196 58.2579 105.024 57.6853 105.024 56.9158V41.1641C105.024 40.295 105.251 39.7089 105.704 39.4056C106.157 39.1024 106.768 38.9507 107.539 38.9507H108.789C109.541 38.9507 110.087 39.0186 110.427 39.1544C110.767 39.2902 111.018 39.5346 111.181 39.8877C111.344 40.2407 111.53 40.8156 111.739 41.6122L114.634 52.5162L117.529 41.6122C117.737 40.8156 117.923 40.2407 118.086 39.8877C118.249 39.5346 118.5 39.2902 118.84 39.1544C119.18 39.0186 119.726 38.9507 120.478 38.9507H121.729C122.499 38.9507 123.11 39.1024 123.563 39.4056C124.017 39.7089 124.243 40.295 124.243 41.1641V56.9158C124.243 57.6763 124.073 58.2466 123.733 58.6268C123.394 59.007 122.938 59.1971 122.367 59.1971C121.833 59.1971 121.393 59.007 121.049 58.6268C120.705 58.2466 120.532 57.6763 120.532 56.9158V43.1738L117.338 55.8567C117.13 56.6805 116.96 57.2847 116.829 57.6695C116.697 58.0542 116.455 58.405 116.102 58.7219C115.748 59.0387 115.259 59.1971 114.634 59.1971C114.162 59.1971 113.764 59.0953 113.438 58.8916C113.111 58.6879 112.858 58.4276 112.676 58.1108C112.495 57.7939 112.352 57.4432 112.248 57.0584C112.14 56.6583 112.033 56.2577 111.929 55.8567V55.8567ZM137.508 57.1059C136.611 57.803 135.744 58.3258 134.906 58.6743C134.067 59.0229 133.127 59.1971 132.085 59.1971C131.134 59.1971 130.298 59.0093 129.578 58.6336C128.857 58.2579 128.302 57.7487 127.913 57.1059C127.523 56.4632 127.328 55.7661 127.328 55.0148C127.328 54.0009 127.65 53.1363 128.293 52.4212C128.936 51.706 129.82 51.2262 130.944 50.9818C131.179 50.9275 131.764 50.8053 132.697 50.6151C133.63 50.425 134.43 50.2508 135.096 50.0923C135.762 49.9339 136.484 49.7416 137.264 49.5152C137.218 48.5375 137.021 47.8201 136.672 47.3629C136.324 46.9058 135.601 46.6772 134.505 46.6772C133.562 46.6772 132.853 46.8085 132.377 47.071C131.902 47.3336 131.494 47.7273 131.154 48.2524C130.814 48.7774 130.574 49.1237 130.434 49.2912C130.293 49.4587 129.992 49.5424 129.53 49.5424C129.113 49.5424 128.753 49.4089 128.449 49.1418C128.146 48.8747 127.994 48.533 127.994 48.1166C127.994 47.4648 128.225 46.8311 128.687 46.2155C129.149 45.5999 129.87 45.093 130.848 44.6947C131.827 44.2963 133.046 44.0972 134.505 44.0972C136.136 44.0972 137.418 44.2896 138.351 44.6743C139.284 45.059 139.944 45.6678 140.329 46.5007C140.714 47.3336 140.906 48.438 140.906 49.814C140.906 50.683 140.904 51.4208 140.9 52.0274C140.894 52.7018 140.888 53.3762 140.879 54.0506C140.879 54.7477 140.995 55.4742 141.226 56.2301C141.457 56.986 141.572 57.4726 141.572 57.6898C141.572 58.0701 141.393 58.4163 141.035 58.7286C140.678 59.0409 140.272 59.1971 139.819 59.1971C139.438 59.1971 139.062 59.0183 138.691 58.6607C138.319 58.3031 137.925 57.7849 137.508 57.1059V57.1059ZM137.264 51.7422C136.72 51.9414 135.929 52.1519 134.892 52.3736C133.854 52.5954 133.136 52.7584 132.738 52.8625C132.339 52.9666 131.958 53.1703 131.596 53.4735C131.233 53.7768 131.052 54.2 131.052 54.7432C131.052 55.3044 131.265 55.782 131.691 56.1758C132.117 56.5696 132.674 56.7665 133.363 56.7665C134.097 56.7665 134.774 56.6058 135.395 56.2844C136.016 55.963 136.471 55.5489 136.761 55.0419C137.096 54.4807 137.264 53.5573 137.264 52.2718V51.7422V51.7422ZM148.382 46.2291V56.943C148.382 57.6853 148.205 58.2466 147.852 58.6268C147.499 59.007 147.05 59.1971 146.506 59.1971C145.963 59.1971 145.521 59.0025 145.181 58.6132C144.841 58.2239 144.672 57.6672 144.672 56.943V46.3377C144.672 45.6045 144.841 45.0523 145.181 44.6811C145.521 44.3099 145.963 44.1243 146.506 44.1243C147.05 44.1243 147.499 44.3099 147.852 44.6811C148.205 45.0523 148.382 45.5683 148.382 46.2291ZM146.547 42.3998C146.031 42.3998 145.589 42.2414 145.222 41.9245C144.855 41.6077 144.672 41.1596 144.672 40.5802C144.672 40.0551 144.86 39.6229 145.236 39.2834C145.612 38.9439 146.049 38.7742 146.547 38.7742C147.027 38.7742 147.453 38.9281 147.825 39.2358C148.196 39.5437 148.382 39.9918 148.382 40.5802C148.382 41.1505 148.201 41.5964 147.838 41.9177C147.476 42.2391 147.046 42.3998 146.547 42.3998V42.3998Z" fill="#564D65"/>
<path d="M131.272 30.6803V34.1033C131.272 34.644 131.149 35.0495 130.904 35.3198C130.659 35.5901 130.335 35.7253 129.932 35.7253C129.542 35.7253 129.226 35.5901 128.983 35.3198C128.741 35.0495 128.62 34.644 128.62 34.1033V30.0013C128.62 29.3538 128.598 28.8509 128.554 28.4925C128.51 28.1342 128.39 27.8403 128.195 27.6109C128 27.3814 127.692 27.2667 127.27 27.2667C126.427 27.2667 125.872 27.5558 125.604 28.1342C125.337 28.7126 125.203 29.5424 125.203 30.6237V34.1033C125.203 34.6377 125.082 35.0416 124.84 35.3151C124.597 35.5886 124.278 35.7253 123.882 35.7253C123.491 35.7253 123.172 35.5886 122.924 35.3151C122.675 35.0416 122.551 34.6377 122.551 34.1033V26.7386C122.551 26.2545 122.662 25.8867 122.886 25.6353C123.109 25.3838 123.403 25.2581 123.768 25.2581C124.121 25.2581 124.415 25.376 124.651 25.6117C124.887 25.8475 125.005 26.1728 125.005 26.5877V26.8329C125.452 26.2985 125.93 25.9056 126.44 25.6541C126.949 25.4027 127.516 25.277 128.139 25.277C128.787 25.277 129.344 25.4058 129.809 25.6636C130.275 25.9213 130.659 26.3111 130.961 26.8329C131.395 26.3048 131.861 25.9135 132.358 25.6588C132.855 25.4042 133.405 25.277 134.009 25.277C134.714 25.277 135.321 25.4153 135.831 25.6919C136.341 25.9684 136.722 26.3645 136.973 26.88C137.193 27.3452 137.304 28.0776 137.304 29.0772V34.1033C137.304 34.644 137.181 35.0495 136.935 35.3198C136.69 35.5901 136.366 35.7253 135.963 35.7253C135.573 35.7253 135.254 35.5886 135.005 35.3151C134.757 35.0416 134.632 34.6377 134.632 34.1033V29.775C134.632 29.2218 134.609 28.7786 134.562 28.4454C134.514 28.1122 134.387 27.8325 134.179 27.6061C133.972 27.3798 133.657 27.2667 133.235 27.2667C132.896 27.2667 132.573 27.3672 132.268 27.5684C131.963 27.7696 131.725 28.0399 131.555 28.3794C131.367 28.8132 131.272 29.5801 131.272 30.6803V30.6803ZM142.183 36.0459L142.419 35.4707L139.248 27.493C139.053 27.034 138.955 26.7009 138.955 26.4934C138.955 26.2734 139.012 26.0691 139.125 25.8805C139.239 25.6919 139.394 25.541 139.593 25.4278C139.791 25.3147 139.997 25.2581 140.211 25.2581C140.582 25.2581 140.862 25.376 141.051 25.6117C141.24 25.8475 141.406 26.1854 141.551 26.6254L143.731 32.9623L145.799 27.0686C145.962 26.5908 146.11 26.2168 146.242 25.9465C146.374 25.6761 146.514 25.4938 146.662 25.3995C146.81 25.3052 147.019 25.2581 147.29 25.2581C147.485 25.2581 147.672 25.31 147.851 25.4137C148.031 25.5174 148.169 25.6573 148.267 25.8333C148.364 26.0093 148.413 26.1948 148.413 26.3897C148.388 26.5091 148.347 26.6789 148.29 26.8989C148.232 27.1252 148.162 27.3486 148.083 27.5684L144.722 36.3571C144.433 37.1303 144.15 37.737 143.873 38.1771C143.596 38.6171 143.23 38.955 142.773 39.1908C142.317 39.4265 141.702 39.5444 140.928 39.5444C140.173 39.5444 139.607 39.4627 139.229 39.2992C138.852 39.1358 138.663 38.8372 138.663 38.4034C138.663 38.1079 138.752 37.88 138.932 37.7197C139.111 37.5594 139.377 37.4793 139.729 37.4793C139.868 37.4793 140.003 37.4981 140.135 37.5358C140.299 37.5735 140.44 37.5924 140.56 37.5924C140.856 37.5924 141.089 37.5484 141.258 37.4604C141.428 37.3724 141.581 37.2199 141.716 37.003C141.852 36.7862 142.007 36.4671 142.183 36.0459V36.0459Z" fill="#564D65"/>
</svg>
