<svg xmlns="http://www.w3.org/2000/svg" width="1155" height="1155" xml:space="preserve"><path fill="#FFF" d="M0 0h1155v1155H0z"/><path d="M0 0h100v100H0z" transform="matrix(.35 0 0 .35 350 70)" style="fill:#000"/><path d="M0 0h100v100H0z" transform="matrix(.35 0 0 .35 385 70)" style="fill:#000"/><path d="M0 0h100v100H0z" transform="matrix(.35 0 0 .35 455 70)" style="fill:#000"/><path d="M0 0h100v100H0z" transform="matrix(.35 0 0 .35 490 70)" style="fill:#000"/><path d="M0 0h100v100H0z" transform="matrix(.35 0 0 .35 595 70)" style="fill:#000"/><path d="M0 0h100v100H0z" transform="matrix(.35 0 0 .35 630 70)" style="fill:#000"/><path d="M0 0h100v100H0z" transform="matrix(.35 0 0 .35 665 70)" style="fill:#000"/><path d="M0 0h100v100H0z" transform="matrix(.35 0 0 .35 735 70)" style="fill:#000"/><path d="M0 0h100v100H0z" transform="matrix(.35 0 0 .35 490 105)" style="fill:#000"/><path d="M0 0h100v100H0z" transform="matrix(.35 0 0 .35 525 105)" style="fill:#000"/><path d="M0 0h100v100H0z" transform="matrix(.35 0 0 .35 560 105)" style="fill:#000"/><path d="M0 0h100v100H0z" transform="matrix(.35 0 0 .35 630 105)" style="fill:#000"/><path d="M0 0h100v100H0z" transform="matrix(.35 0 0 .35 770 105)" style="fill:#000"/><path d="M0 0h100v100H0z" transform="matrix(.35 0 0 .35 350 140)" style="fill:#000"/><path d="M0 0h100v100H0z" transform="matrix(.35 0 0 .35 385 140)" style="fill:#000"/><path d="M0 0h100v100H0z" transform="matrix(.35 0 0 .35 455 140)" style="fill:#000"/><path d="M0 0h100v100H0z" transform="matrix(.35 0 0 .35 560 140)" style="fill:#000"/><path d="M0 0h100v100H0z" transform="matrix(.35 0 0 .35 595 140)" style="fill:#000"/><path d="M0 0h100v100H0z" transform="matrix(.35 0 0 .35 630 140)" style="fill:#000"/><path d="M0 0h100v100H0z" transform="matrix(.35 0 0 .35 665 140)" style="fill:#000"/><path d="M0 0h100v100H0z" transform="matrix(.35 0 0 .35 700 140)" style="fill:#000"/><path d="M0 0h100v100H0z" transform="matrix(.35 0 0 .35 735 140)" style="fill:#000"/><path d="M0 0h100v100H0z" transform="matrix(.35 0 0 .35 770 140)" style="fill:#000"/><path d="M0 0h100v100H0z" transform="matrix(.35 0 0 .35 385 175)" style="fill:#000"/><path d="M0 0h100v100H0z" transform="matrix(.35 0 0 .35 420 175)" style="fill:#000"/><path d="M0 0h100v100H0z" transform="matrix(.35 0 0 .35 455 175)" style="fill:#000"/><path d="M0 0h100v100H0z" transform="matrix(.35 0 0 .35 560 175)" style="fill:#000"/><path d="M0 0h100v100H0z" transform="matrix(.35 0 0 .35 665 175)" style="fill:#000"/><path d="M0 0h100v100H0z" transform="matrix(.35 0 0 .35 700 175)" style="fill:#000"/><path d="M0 0h100v100H0z" transform="matrix(.35 0 0 .35 735 175)" style="fill:#000"/><path d="M0 0h100v100H0z" transform="matrix(.35 0 0 .35 770 175)" style="fill:#000"/><path d="M0 0h100v100H0z" transform="matrix(.35 0 0 .35 385 210)" style="fill:#000"/><path d="M0 0h100v100H0z" transform="matrix(.35 0 0 .35 420 210)" style="fill:#000"/><path d="M0 0h100v100H0z" transform="matrix(.35 0 0 .35 455 210)" style="fill:#000"/><path d="M0 0h100v100H0z" transform="matrix(.35 0 0 .35 525 210)" style="fill:#000"/><path d="M0 0h100v100H0z" transform="matrix(.35 0 0 .35 560 210)" style="fill:#000"/><path d="M0 0h100v100H0z" transform="matrix(.35 0 0 .35 595 210)" style="fill:#000"/><path d="M0 0h100v100H0z" transform="matrix(.35 0 0 .35 700 210)" style="fill:#000"/><path d="M0 0h100v100H0z" transform="matrix(.35 0 0 .35 350 245)" style="fill:#000"/><path d="M0 0h100v100H0z" transform="matrix(.35 0 0 .35 420 245)" style="fill:#000"/><path d="M0 0h100v100H0z" transform="matrix(.35 0 0 .35 595 245)" style="fill:#000"/><path d="M0 0h100v100H0z" transform="matrix(.35 0 0 .35 665 245)" style="fill:#000"/><path d="M0 0h100v100H0z" transform="matrix(.35 0 0 .35 770 245)" style="fill:#000"/><path d="M0 0h100v100H0z" transform="matrix(.35 0 0 .35 350 280)" style="fill:#000"/><path d="M0 0h100v100H0z" transform="matrix(.35 0 0 .35 420 280)" style="fill:#000"/><path d="M0 0h100v100H0z" transform="matrix(.35 0 0 .35 490 280)" style="fill:#000"/><path d="M0 0h100v100H0z" transform="matrix(.35 0 0 .35 560 280)" style="fill:#000"/><path d="M0 0h100v100H0z" transform="matrix(.35 0 0 .35 630 280)" style="fill:#000"/><path d="M0 0h100v100H0z" transform="matrix(.35 0 0 .35 700 280)" style="fill:#000"/><path d="M0 0h100v100H0z" transform="matrix(.35 0 0 .35 770 280)" style="fill:#000"/><path d="M0 0h100v100H0z" transform="matrix(.35 0 0 .35 560 315)" style="fill:#000"/><path d="M0 0h100v100H0z" transform="matrix(.35 0 0 .35 595 315)" style="fill:#000"/><path d="M0 0h100v100H0z" transform="matrix(.35 0 0 .35 630 315)" style="fill:#000"/><path d="M0 0h100v100H0z" transform="matrix(.35 0 0 .35 700 315)" style="fill:#000"/><path d="M0 0h100v100H0z" transform="matrix(.35 0 0 .35 770 315)" style="fill:#000"/><path d="M0 0h100v100H0z" transform="matrix(.35 0 0 .35 70 350)" style="fill:#000"/><path d="M0 0h100v100H0z" transform="matrix(.35 0 0 .35 140 350)" style="fill:#000"/><path d="M0 0h100v100H0z" transform="matrix(.35 0 0 .35 280 350)" style="fill:#000"/><path d="M0 0h100v100H0z" transform="matrix(.35 0 0 .35 315 350)" style="fill:#000"/><path d="M0 0h100v100H0z" transform="matrix(.35 0 0 .35 525 350)" style="fill:#000"/><path d="M0 0h100v100H0z" transform="matrix(.35 0 0 .35 560 350)" style="fill:#000"/><path d="M0 0h100v100H0z" transform="matrix(.35 0 0 .35 630 350)" style="fill:#000"/><path d="M0 0h100v100H0z" transform="matrix(.35 0 0 .35 735 350)" style="fill:#000"/><path d="M0 0h100v100H0z" transform="matrix(.35 0 0 .35 875 350)" style="fill:#000"/><path d="M0 0h100v100H0z" transform="matrix(.35 0 0 .35 980 350)" style="fill:#000"/><path d="M0 0h100v100H0z" transform="matrix(.35 0 0 .35 1050 350)" style="fill:#000"/><path d="M0 0h100v100H0z" transform="matrix(.35 0 0 .35 105 385)" style="fill:#000"/><path d="M0 0h100v100H0z" transform="matrix(.35 0 0 .35 175 385)" style="fill:#000"/><path d="M0 0h100v100H0z" transform="matrix(.35 0 0 .35 315 385)" style="fill:#000"/><path d="M0 0h100v100H0z" transform="matrix(.35 0 0 .35 350 385)" style="fill:#000"/><path d="M0 0h100v100H0z" transform="matrix(.35 0 0 .35 420 385)" style="fill:#000"/><path d="M0 0h100v100H0z" transform="matrix(.35 0 0 .35 490 385)" style="fill:#000"/><path d="M0 0h100v100H0z" transform="matrix(.35 0 0 .35 525 385)" style="fill:#000"/><path d="M0 0h100v100H0z" transform="matrix(.35 0 0 .35 560 385)" style="fill:#000"/><path d="M0 0h100v100H0z" transform="matrix(.35 0 0 .35 665 385)" style="fill:#000"/><path d="M0 0h100v100H0z" transform="matrix(.35 0 0 .35 700 385)" style="fill:#000"/><path d="M0 0h100v100H0z" transform="matrix(.35 0 0 .35 735 385)" style="fill:#000"/><path d="M0 0h100v100H0z" transform="matrix(.35 0 0 .35 805 385)" style="fill:#000"/><path d="M0 0h100v100H0z" transform="matrix(.35 0 0 .35 840 385)" style="fill:#000"/><path d="M0 0h100v100H0z" transform="matrix(.35 0 0 .35 875 385)" style="fill:#000"/><path d="M0 0h100v100H0z" transform="matrix(.35 0 0 .35 980 385)" style="fill:#000"/><path d="M0 0h100v100H0z" transform="matrix(.35 0 0 .35 1050 385)" style="fill:#000"/><path d="M0 0h100v100H0z" transform="matrix(.35 0 0 .35 70 420)" style="fill:#000"/><path d="M0 0h100v100H0z" transform="matrix(.35 0 0 .35 210 420)" style="fill:#000"/><path d="M0 0h100v100H0z" transform="matrix(.35 0 0 .35 245 420)" style="fill:#000"/><path d="M0 0h100v100H0z" transform="matrix(.35 0 0 .35 280 420)" style="fill:#000"/><path d="M0 0h100v100H0z" transform="matrix(.35 0 0 .35 315 420)" style="fill:#000"/><path d="M0 0h100v100H0z" transform="matrix(.35 0 0 .35 350 420)" style="fill:#000"/><path d="M0 0h100v100H0z" transform="matrix(.35 0 0 .35 385 420)" style="fill:#000"/><path d="M0 0h100v100H0z" transform="matrix(.35 0 0 .35 420 420)" style="fill:#000"/><path d="M0 0h100v100H0z" transform="matrix(.35 0 0 .35 455 420)" style="fill:#000"/><path d="M0 0h100v100H0z" transform="matrix(.35 0 0 .35 490 420)" style="fill:#000"/><path d="M0 0h100v100H0z" transform="matrix(.35 0 0 .35 595 420)" style="fill:#000"/><path d="M0 0h100v100H0z" transform="matrix(.35 0 0 .35 665 420)" style="fill:#000"/><path d="M0 0h100v100H0z" transform="matrix(.35 0 0 .35 700 420)" style="fill:#000"/><path d="M0 0h100v100H0z" transform="matrix(.35 0 0 .35 735 420)" style="fill:#000"/><path d="M0 0h100v100H0z" transform="matrix(.35 0 0 .35 770 420)" style="fill:#000"/><path d="M0 0h100v100H0z" transform="matrix(.35 0 0 .35 840 420)" style="fill:#000"/><path d="M0 0h100v100H0z" transform="matrix(.35 0 0 .35 875 420)" style="fill:#000"/><path d="M0 0h100v100H0z" transform="matrix(.35 0 0 .35 945 420)" style="fill:#000"/><path d="M0 0h100v100H0z" transform="matrix(.35 0 0 .35 1050 420)" style="fill:#000"/><path d="M0 0h100v100H0z" transform="matrix(.35 0 0 .35 70 455)" style="fill:#000"/><path d="M0 0h100v100H0z" transform="matrix(.35 0 0 .35 140 455)" style="fill:#000"/><path d="M0 0h100v100H0z" transform="matrix(.35 0 0 .35 245 455)" style="fill:#000"/><path d="M0 0h100v100H0z" transform="matrix(.35 0 0 .35 315 455)" style="fill:#000"/><path d="M0 0h100v100H0z" transform="matrix(.35 0 0 .35 385 455)" style="fill:#000"/><path d="M0 0h100v100H0z" transform="matrix(.35 0 0 .35 525 455)" style="fill:#000"/><path d="M0 0h100v100H0z" transform="matrix(.35 0 0 .35 630 455)" style="fill:#000"/><path d="M0 0h100v100H0z" transform="matrix(.35 0 0 .35 700 455)" style="fill:#000"/><path d="M0 0h100v100H0z" transform="matrix(.35 0 0 .35 735 455)" style="fill:#000"/><path d="M0 0h100v100H0z" transform="matrix(.35 0 0 .35 805 455)" style="fill:#000"/><path d="M0 0h100v100H0z" transform="matrix(.35 0 0 .35 840 455)" style="fill:#000"/><path d="M0 0h100v100H0z" transform="matrix(.35 0 0 .35 910 455)" style="fill:#000"/><path d="M0 0h100v100H0z" transform="matrix(.35 0 0 .35 945 455)" style="fill:#000"/><path d="M0 0h100v100H0z" transform="matrix(.35 0 0 .35 70 490)" style="fill:#000"/><path d="M0 0h100v100H0z" transform="matrix(.35 0 0 .35 105 490)" style="fill:#000"/><path d="M0 0h100v100H0z" transform="matrix(.35 0 0 .35 175 490)" style="fill:#000"/><path d="M0 0h100v100H0z" transform="matrix(.35 0 0 .35 210 490)" style="fill:#000"/><path d="M0 0h100v100H0z" transform="matrix(.35 0 0 .35 245 490)" style="fill:#000"/><path d="M0 0h100v100H0z" transform="matrix(.35 0 0 .35 280 490)" style="fill:#000"/><path d="M0 0h100v100H0z" transform="matrix(.35 0 0 .35 350 490)" style="fill:#000"/><path d="M0 0h100v100H0z" transform="matrix(.35 0 0 .35 385 490)" style="fill:#000"/><path d="M0 0h100v100H0z" transform="matrix(.35 0 0 .35 490 490)" style="fill:#000"/><path d="M0 0h100v100H0z" transform="matrix(.35 0 0 .35 525 490)" style="fill:#000"/><path d="M0 0h100v100H0z" transform="matrix(.35 0 0 .35 630 490)" style="fill:#000"/><path d="M0 0h100v100H0z" transform="matrix(.35 0 0 .35 665 490)" style="fill:#000"/><path d="M0 0h100v100H0z" transform="matrix(.35 0 0 .35 840 490)" style="fill:#000"/><path d="M0 0h100v100H0z" transform="matrix(.35 0 0 .35 910 490)" style="fill:#000"/><path d="M0 0h100v100H0z" transform="matrix(.35 0 0 .35 945 490)" style="fill:#000"/><path d="M0 0h100v100H0z" transform="matrix(.35 0 0 .35 980 490)" style="fill:#000"/><path d="M0 0h100v100H0z" transform="matrix(.35 0 0 .35 1050 490)" style="fill:#000"/><path d="M0 0h100v100H0z" transform="matrix(.35 0 0 .35 70 525)" style="fill:#000"/><path d="M0 0h100v100H0z" transform="matrix(.35 0 0 .35 210 525)" style="fill:#000"/><path d="M0 0h100v100H0z" transform="matrix(.35 0 0 .35 245 525)" style="fill:#000"/><path d="M0 0h100v100H0z" transform="matrix(.35 0 0 .35 315 525)" style="fill:#000"/><path d="M0 0h100v100H0z" transform="matrix(.35 0 0 .35 350 525)" style="fill:#000"/><path d="M0 0h100v100H0z" transform="matrix(.35 0 0 .35 385 525)" style="fill:#000"/><path d="M0 0h100v100H0z" transform="matrix(.35 0 0 .35 420 525)" style="fill:#000"/><path d="M0 0h100v100H0z" transform="matrix(.35 0 0 .35 595 525)" style="fill:#000"/><path d="M0 0h100v100H0z" transform="matrix(.35 0 0 .35 630 525)" style="fill:#000"/><path d="M0 0h100v100H0z" transform="matrix(.35 0 0 .35 735 525)" style="fill:#000"/><path d="M0 0h100v100H0z" transform="matrix(.35 0 0 .35 770 525)" style="fill:#000"/><path d="M0 0h100v100H0z" transform="matrix(.35 0 0 .35 840 525)" style="fill:#000"/><path d="M0 0h100v100H0z" transform="matrix(.35 0 0 .35 875 525)" style="fill:#000"/><path d="M0 0h100v100H0z" transform="matrix(.35 0 0 .35 980 525)" style="fill:#000"/><path d="M0 0h100v100H0z" transform="matrix(.35 0 0 .35 1015 525)" style="fill:#000"/><path d="M0 0h100v100H0z" transform="matrix(.35 0 0 .35 140 560)" style="fill:#000"/><path d="M0 0h100v100H0z" transform="matrix(.35 0 0 .35 175 560)" style="fill:#000"/><path d="M0 0h100v100H0z" transform="matrix(.35 0 0 .35 245 560)" style="fill:#000"/><path d="M0 0h100v100H0z" transform="matrix(.35 0 0 .35 280 560)" style="fill:#000"/><path d="M0 0h100v100H0z" transform="matrix(.35 0 0 .35 385 560)" style="fill:#000"/><path d="M0 0h100v100H0z" transform="matrix(.35 0 0 .35 420 560)" style="fill:#000"/><path d="M0 0h100v100H0z" transform="matrix(.35 0 0 .35 525 560)" style="fill:#000"/><path d="M0 0h100v100H0z" transform="matrix(.35 0 0 .35 560 560)" style="fill:#000"/><path d="M0 0h100v100H0z" transform="matrix(.35 0 0 .35 595 560)" style="fill:#000"/><path d="M0 0h100v100H0z" transform="matrix(.35 0 0 .35 630 560)" style="fill:#000"/><path d="M0 0h100v100H0z" transform="matrix(.35 0 0 .35 665 560)" style="fill:#000"/><path d="M0 0h100v100H0z" transform="matrix(.35 0 0 .35 735 560)" style="fill:#000"/><path d="M0 0h100v100H0z" transform="matrix(.35 0 0 .35 805 560)" style="fill:#000"/><path d="M0 0h100v100H0z" transform="matrix(.35 0 0 .35 910 560)" style="fill:#000"/><path d="M0 0h100v100H0z" transform="matrix(.35 0 0 .35 945 560)" style="fill:#000"/><path d="M0 0h100v100H0z" transform="matrix(.35 0 0 .35 1050 560)" style="fill:#000"/><path d="M0 0h100v100H0z" transform="matrix(.35 0 0 .35 70 595)" style="fill:#000"/><path d="M0 0h100v100H0z" transform="matrix(.35 0 0 .35 140 595)" style="fill:#000"/><path d="M0 0h100v100H0z" transform="matrix(.35 0 0 .35 175 595)" style="fill:#000"/><path d="M0 0h100v100H0z" transform="matrix(.35 0 0 .35 245 595)" style="fill:#000"/><path d="M0 0h100v100H0z" transform="matrix(.35 0 0 .35 385 595)" style="fill:#000"/><path d="M0 0h100v100H0z" transform="matrix(.35 0 0 .35 420 595)" style="fill:#000"/><path d="M0 0h100v100H0z" transform="matrix(.35 0 0 .35 490 595)" style="fill:#000"/><path d="M0 0h100v100H0z" transform="matrix(.35 0 0 .35 560 595)" style="fill:#000"/><path d="M0 0h100v100H0z" transform="matrix(.35 0 0 .35 595 595)" style="fill:#000"/><path d="M0 0h100v100H0z" transform="matrix(.35 0 0 .35 700 595)" style="fill:#000"/><path d="M0 0h100v100H0z" transform="matrix(.35 0 0 .35 840 595)" style="fill:#000"/><path d="M0 0h100v100H0z" transform="matrix(.35 0 0 .35 945 595)" style="fill:#000"/><path d="M0 0h100v100H0z" transform="matrix(.35 0 0 .35 70 630)" style="fill:#000"/><path d="M0 0h100v100H0z" transform="matrix(.35 0 0 .35 140 630)" style="fill:#000"/><path d="M0 0h100v100H0z" transform="matrix(.35 0 0 .35 210 630)" style="fill:#000"/><path d="M0 0h100v100H0z" transform="matrix(.35 0 0 .35 280 630)" style="fill:#000"/><path d="M0 0h100v100H0z" transform="matrix(.35 0 0 .35 315 630)" style="fill:#000"/><path d="M0 0h100v100H0z" transform="matrix(.35 0 0 .35 350 630)" style="fill:#000"/><path d="M0 0h100v100H0z" transform="matrix(.35 0 0 .35 455 630)" style="fill:#000"/><path d="M0 0h100v100H0z" transform="matrix(.35 0 0 .35 490 630)" style="fill:#000"/><path d="M0 0h100v100H0z" transform="matrix(.35 0 0 .35 525 630)" style="fill:#000"/><path d="M0 0h100v100H0z" transform="matrix(.35 0 0 .35 560 630)" style="fill:#000"/><path d="M0 0h100v100H0z" transform="matrix(.35 0 0 .35 595 630)" style="fill:#000"/><path d="M0 0h100v100H0z" transform="matrix(.35 0 0 .35 630 630)" style="fill:#000"/><path d="M0 0h100v100H0z" transform="matrix(.35 0 0 .35 700 630)" style="fill:#000"/><path d="M0 0h100v100H0z" transform="matrix(.35 0 0 .35 735 630)" style="fill:#000"/><path d="M0 0h100v100H0z" transform="matrix(.35 0 0 .35 770 630)" style="fill:#000"/><path d="M0 0h100v100H0z" transform="matrix(.35 0 0 .35 840 630)" style="fill:#000"/><path d="M0 0h100v100H0z" transform="matrix(.35 0 0 .35 945 630)" style="fill:#000"/><path d="M0 0h100v100H0z" transform="matrix(.35 0 0 .35 980 630)" style="fill:#000"/><path d="M0 0h100v100H0z" transform="matrix(.35 0 0 .35 1050 630)" style="fill:#000"/><path d="M0 0h100v100H0z" transform="matrix(.35 0 0 .35 105 665)" style="fill:#000"/><path d="M0 0h100v100H0z" transform="matrix(.35 0 0 .35 175 665)" style="fill:#000"/><path d="M0 0h100v100H0z" transform="matrix(.35 0 0 .35 385 665)" style="fill:#000"/><path d="M0 0h100v100H0z" transform="matrix(.35 0 0 .35 455 665)" style="fill:#000"/><path d="M0 0h100v100H0z" transform="matrix(.35 0 0 .35 490 665)" style="fill:#000"/><path d="M0 0h100v100H0z" transform="matrix(.35 0 0 .35 525 665)" style="fill:#000"/><path d="M0 0h100v100H0z" transform="matrix(.35 0 0 .35 560 665)" style="fill:#000"/><path d="M0 0h100v100H0z" transform="matrix(.35 0 0 .35 595 665)" style="fill:#000"/><path d="M0 0h100v100H0z" transform="matrix(.35 0 0 .35 630 665)" style="fill:#000"/><path d="M0 0h100v100H0z" transform="matrix(.35 0 0 .35 665 665)" style="fill:#000"/><path d="M0 0h100v100H0z" transform="matrix(.35 0 0 .35 700 665)" style="fill:#000"/><path d="M0 0h100v100H0z" transform="matrix(.35 0 0 .35 770 665)" style="fill:#000"/><path d="M0 0h100v100H0z" transform="matrix(.35 0 0 .35 805 665)" style="fill:#000"/><path d="M0 0h100v100H0z" transform="matrix(.35 0 0 .35 840 665)" style="fill:#000"/><path d="M0 0h100v100H0z" transform="matrix(.35 0 0 .35 945 665)" style="fill:#000"/><path d="M0 0h100v100H0z" transform="matrix(.35 0 0 .35 1015 665)" style="fill:#000"/><path d="M0 0h100v100H0z" transform="matrix(.35 0 0 .35 70 700)" style="fill:#000"/><path d="M0 0h100v100H0z" transform="matrix(.35 0 0 .35 105 700)" style="fill:#000"/><path d="M0 0h100v100H0z" transform="matrix(.35 0 0 .35 280 700)" style="fill:#000"/><path d="M0 0h100v100H0z" transform="matrix(.35 0 0 .35 350 700)" style="fill:#000"/><path d="M0 0h100v100H0z" transform="matrix(.35 0 0 .35 385 700)" style="fill:#000"/><path d="M0 0h100v100H0z" transform="matrix(.35 0 0 .35 595 700)" style="fill:#000"/><path d="M0 0h100v100H0z" transform="matrix(.35 0 0 .35 630 700)" style="fill:#000"/><path d="M0 0h100v100H0z" transform="matrix(.35 0 0 .35 665 700)" style="fill:#000"/><path d="M0 0h100v100H0z" transform="matrix(.35 0 0 .35 700 700)" style="fill:#000"/><path d="M0 0h100v100H0z" transform="matrix(.35 0 0 .35 735 700)" style="fill:#000"/><path d="M0 0h100v100H0z" transform="matrix(.35 0 0 .35 770 700)" style="fill:#000"/><path d="M0 0h100v100H0z" transform="matrix(.35 0 0 .35 840 700)" style="fill:#000"/><path d="M0 0h100v100H0z" transform="matrix(.35 0 0 .35 875 700)" style="fill:#000"/><path d="M0 0h100v100H0z" transform="matrix(.35 0 0 .35 910 700)" style="fill:#000"/><path d="M0 0h100v100H0z" transform="matrix(.35 0 0 .35 945 700)" style="fill:#000"/><path d="M0 0h100v100H0z" transform="matrix(.35 0 0 .35 1050 700)" style="fill:#000"/><path d="M0 0h100v100H0z" transform="matrix(.35 0 0 .35 175 735)" style="fill:#000"/><path d="M0 0h100v100H0z" transform="matrix(.35 0 0 .35 210 735)" style="fill:#000"/><path d="M0 0h100v100H0z" transform="matrix(.35 0 0 .35 245 735)" style="fill:#000"/><path d="M0 0h100v100H0z" transform="matrix(.35 0 0 .35 350 735)" style="fill:#000"/><path d="M0 0h100v100H0z" transform="matrix(.35 0 0 .35 385 735)" style="fill:#000"/><path d="M0 0h100v100H0z" transform="matrix(.35 0 0 .35 525 735)" style="fill:#000"/><path d="M0 0h100v100H0z" transform="matrix(.35 0 0 .35 700 735)" style="fill:#000"/><path d="M0 0h100v100H0z" transform="matrix(.35 0 0 .35 770 735)" style="fill:#000"/><path d="M0 0h100v100H0z" transform="matrix(.35 0 0 .35 910 735)" style="fill:#000"/><path d="M0 0h100v100H0z" transform="matrix(.35 0 0 .35 945 735)" style="fill:#000"/><path d="M0 0h100v100H0z" transform="matrix(.35 0 0 .35 70 770)" style="fill:#000"/><path d="M0 0h100v100H0z" transform="matrix(.35 0 0 .35 105 770)" style="fill:#000"/><path d="M0 0h100v100H0z" transform="matrix(.35 0 0 .35 175 770)" style="fill:#000"/><path d="M0 0h100v100H0z" transform="matrix(.35 0 0 .35 210 770)" style="fill:#000"/><path d="M0 0h100v100H0z" transform="matrix(.35 0 0 .35 280 770)" style="fill:#000"/><path d="M0 0h100v100H0z" transform="matrix(.35 0 0 .35 350 770)" style="fill:#000"/><path d="M0 0h100v100H0z" transform="matrix(.35 0 0 .35 455 770)" style="fill:#000"/><path d="M0 0h100v100H0z" transform="matrix(.35 0 0 .35 490 770)" style="fill:#000"/><path d="M0 0h100v100H0z" transform="matrix(.35 0 0 .35 525 770)" style="fill:#000"/><path d="M0 0h100v100H0z" transform="matrix(.35 0 0 .35 665 770)" style="fill:#000"/><path d="M0 0h100v100H0z" transform="matrix(.35 0 0 .35 735 770)" style="fill:#000"/><path d="M0 0h100v100H0z" transform="matrix(.35 0 0 .35 770 770)" style="fill:#000"/><path d="M0 0h100v100H0z" transform="matrix(.35 0 0 .35 805 770)" style="fill:#000"/><path d="M0 0h100v100H0z" transform="matrix(.35 0 0 .35 840 770)" style="fill:#000"/><path d="M0 0h100v100H0z" transform="matrix(.35 0 0 .35 875 770)" style="fill:#000"/><path d="M0 0h100v100H0z" transform="matrix(.35 0 0 .35 910 770)" style="fill:#000"/><path d="M0 0h100v100H0z" transform="matrix(.35 0 0 .35 945 770)" style="fill:#000"/><path d="M0 0h100v100H0z" transform="matrix(.35 0 0 .35 1050 770)" style="fill:#000"/><path d="M0 0h100v100H0z" transform="matrix(.35 0 0 .35 350 805)" style="fill:#000"/><path d="M0 0h100v100H0z" transform="matrix(.35 0 0 .35 420 805)" style="fill:#000"/><path d="M0 0h100v100H0z" transform="matrix(.35 0 0 .35 455 805)" style="fill:#000"/><path d="M0 0h100v100H0z" transform="matrix(.35 0 0 .35 490 805)" style="fill:#000"/><path d="M0 0h100v100H0z" transform="matrix(.35 0 0 .35 630 805)" style="fill:#000"/><path d="M0 0h100v100H0z" transform="matrix(.35 0 0 .35 735 805)" style="fill:#000"/><path d="M0 0h100v100H0z" transform="matrix(.35 0 0 .35 770 805)" style="fill:#000"/><path d="M0 0h100v100H0z" transform="matrix(.35 0 0 .35 910 805)" style="fill:#000"/><path d="M0 0h100v100H0z" transform="matrix(.35 0 0 .35 1015 805)" style="fill:#000"/><path d="M0 0h100v100H0z" transform="matrix(.35 0 0 .35 350 840)" style="fill:#000"/><path d="M0 0h100v100H0z" transform="matrix(.35 0 0 .35 385 840)" style="fill:#000"/><path d="M0 0h100v100H0z" transform="matrix(.35 0 0 .35 420 840)" style="fill:#000"/><path d="M0 0h100v100H0z" transform="matrix(.35 0 0 .35 455 840)" style="fill:#000"/><path d="M0 0h100v100H0z" transform="matrix(.35 0 0 .35 525 840)" style="fill:#000"/><path d="M0 0h100v100H0z" transform="matrix(.35 0 0 .35 560 840)" style="fill:#000"/><path d="M0 0h100v100H0z" transform="matrix(.35 0 0 .35 595 840)" style="fill:#000"/><path d="M0 0h100v100H0z" transform="matrix(.35 0 0 .35 770 840)" style="fill:#000"/><path d="M0 0h100v100H0z" transform="matrix(.35 0 0 .35 840 840)" style="fill:#000"/><path d="M0 0h100v100H0z" transform="matrix(.35 0 0 .35 910 840)" style="fill:#000"/><path d="M0 0h100v100H0z" transform="matrix(.35 0 0 .35 1050 840)" style="fill:#000"/><path d="M0 0h100v100H0z" transform="matrix(.35 0 0 .35 420 875)" style="fill:#000"/><path d="M0 0h100v100H0z" transform="matrix(.35 0 0 .35 560 875)" style="fill:#000"/><path d="M0 0h100v100H0z" transform="matrix(.35 0 0 .35 595 875)" style="fill:#000"/><path d="M0 0h100v100H0z" transform="matrix(.35 0 0 .35 630 875)" style="fill:#000"/><path d="M0 0h100v100H0z" transform="matrix(.35 0 0 .35 700 875)" style="fill:#000"/><path d="M0 0h100v100H0z" transform="matrix(.35 0 0 .35 735 875)" style="fill:#000"/><path d="M0 0h100v100H0z" transform="matrix(.35 0 0 .35 770 875)" style="fill:#000"/><path d="M0 0h100v100H0z" transform="matrix(.35 0 0 .35 910 875)" style="fill:#000"/><path d="M0 0h100v100H0z" transform="matrix(.35 0 0 .35 945 875)" style="fill:#000"/><path d="M0 0h100v100H0z" transform="matrix(.35 0 0 .35 1050 875)" style="fill:#000"/><path d="M0 0h100v100H0z" transform="matrix(.35 0 0 .35 455 910)" style="fill:#000"/><path d="M0 0h100v100H0z" transform="matrix(.35 0 0 .35 525 910)" style="fill:#000"/><path d="M0 0h100v100H0z" transform="matrix(.35 0 0 .35 560 910)" style="fill:#000"/><path d="M0 0h100v100H0z" transform="matrix(.35 0 0 .35 630 910)" style="fill:#000"/><path d="M0 0h100v100H0z" transform="matrix(.35 0 0 .35 700 910)" style="fill:#000"/><path d="M0 0h100v100H0z" transform="matrix(.35 0 0 .35 735 910)" style="fill:#000"/><path d="M0 0h100v100H0z" transform="matrix(.35 0 0 .35 770 910)" style="fill:#000"/><path d="M0 0h100v100H0z" transform="matrix(.35 0 0 .35 805 910)" style="fill:#000"/><path d="M0 0h100v100H0z" transform="matrix(.35 0 0 .35 840 910)" style="fill:#000"/><path d="M0 0h100v100H0z" transform="matrix(.35 0 0 .35 875 910)" style="fill:#000"/><path d="M0 0h100v100H0z" transform="matrix(.35 0 0 .35 910 910)" style="fill:#000"/><path d="M0 0h100v100H0z" transform="matrix(.35 0 0 .35 945 910)" style="fill:#000"/><path d="M0 0h100v100H0z" transform="matrix(.35 0 0 .35 980 910)" style="fill:#000"/><path d="M0 0h100v100H0z" transform="matrix(.35 0 0 .35 1015 910)" style="fill:#000"/><path d="M0 0h100v100H0z" transform="matrix(.35 0 0 .35 1050 910)" style="fill:#000"/><path d="M0 0h100v100H0z" transform="matrix(.35 0 0 .35 385 945)" style="fill:#000"/><path d="M0 0h100v100H0z" transform="matrix(.35 0 0 .35 525 945)" style="fill:#000"/><path d="M0 0h100v100H0z" transform="matrix(.35 0 0 .35 560 945)" style="fill:#000"/><path d="M0 0h100v100H0z" transform="matrix(.35 0 0 .35 595 945)" style="fill:#000"/><path d="M0 0h100v100H0z" transform="matrix(.35 0 0 .35 630 945)" style="fill:#000"/><path d="M0 0h100v100H0z" transform="matrix(.35 0 0 .35 665 945)" style="fill:#000"/><path d="M0 0h100v100H0z" transform="matrix(.35 0 0 .35 700 945)" style="fill:#000"/><path d="M0 0h100v100H0z" transform="matrix(.35 0 0 .35 735 945)" style="fill:#000"/><path d="M0 0h100v100H0z" transform="matrix(.35 0 0 .35 770 945)" style="fill:#000"/><path d="M0 0h100v100H0z" transform="matrix(.35 0 0 .35 805 945)" style="fill:#000"/><path d="M0 0h100v100H0z" transform="matrix(.35 0 0 .35 875 945)" style="fill:#000"/><path d="M0 0h100v100H0z" transform="matrix(.35 0 0 .35 980 945)" style="fill:#000"/><path d="M0 0h100v100H0z" transform="matrix(.35 0 0 .35 1050 945)" style="fill:#000"/><path d="M0 0h100v100H0z" transform="matrix(.35 0 0 .35 350 980)" style="fill:#000"/><path d="M0 0h100v100H0z" transform="matrix(.35 0 0 .35 490 980)" style="fill:#000"/><path d="M0 0h100v100H0z" transform="matrix(.35 0 0 .35 525 980)" style="fill:#000"/><path d="M0 0h100v100H0z" transform="matrix(.35 0 0 .35 595 980)" style="fill:#000"/><path d="M0 0h100v100H0z" transform="matrix(.35 0 0 .35 630 980)" style="fill:#000"/><path d="M0 0h100v100H0z" transform="matrix(.35 0 0 .35 665 980)" style="fill:#000"/><path d="M0 0h100v100H0z" transform="matrix(.35 0 0 .35 700 980)" style="fill:#000"/><path d="M0 0h100v100H0z" transform="matrix(.35 0 0 .35 805 980)" style="fill:#000"/><path d="M0 0h100v100H0z" transform="matrix(.35 0 0 .35 910 980)" style="fill:#000"/><path d="M0 0h100v100H0z" transform="matrix(.35 0 0 .35 945 980)" style="fill:#000"/><path d="M0 0h100v100H0z" transform="matrix(.35 0 0 .35 980 980)" style="fill:#000"/><path d="M0 0h100v100H0z" transform="matrix(.35 0 0 .35 1015 980)" style="fill:#000"/><path d="M0 0h100v100H0z" transform="matrix(.35 0 0 .35 1050 980)" style="fill:#000"/><path d="M0 0h100v100H0z" transform="matrix(.35 0 0 .35 455 1015)" style="fill:#000"/><path d="M0 0h100v100H0z" transform="matrix(.35 0 0 .35 525 1015)" style="fill:#000"/><path d="M0 0h100v100H0z" transform="matrix(.35 0 0 .35 770 1015)" style="fill:#000"/><path d="M0 0h100v100H0z" transform="matrix(.35 0 0 .35 805 1015)" style="fill:#000"/><path d="M0 0h100v100H0z" transform="matrix(.35 0 0 .35 840 1015)" style="fill:#000"/><path d="M0 0h100v100H0z" transform="matrix(.35 0 0 .35 875 1015)" style="fill:#000"/><path d="M0 0h100v100H0z" transform="matrix(.35 0 0 .35 910 1015)" style="fill:#000"/><path d="M0 0h100v100H0z" transform="matrix(.35 0 0 .35 945 1015)" style="fill:#000"/><path d="M0 0h100v100H0z" transform="matrix(.35 0 0 .35 350 1050)" style="fill:#000"/><path d="M0 0h100v100H0z" transform="matrix(.35 0 0 .35 385 1050)" style="fill:#000"/><path d="M0 0h100v100H0z" transform="matrix(.35 0 0 .35 420 1050)" style="fill:#000"/><path d="M0 0h100v100H0z" transform="matrix(.35 0 0 .35 560 1050)" style="fill:#000"/><path d="M0 0h100v100H0z" transform="matrix(.35 0 0 .35 700 1050)" style="fill:#000"/><path d="M0 0h100v100H0z" transform="matrix(.35 0 0 .35 770 1050)" style="fill:#000"/><path d="M0 0h100v100H0z" transform="matrix(.35 0 0 .35 805 1050)" style="fill:#000"/><path d="M0 0h100v100H0z" transform="matrix(.35 0 0 .35 910 1050)" style="fill:#000"/><path d="M0 0h100v100H0z" transform="matrix(.35 0 0 .35 1050 1050)" style="fill:#000"/><g style="fill:#000"><path style="fill:none" d="M15 15h70v70H15z" transform="matrix(2.45 0 0 2.45 70 70)"/><path d="M278.25 70H70v245h245V70h-36.75zm0 208.25h-171.5v-171.5h171.5v171.5z"/></g><g style="fill:#000"><path style="fill:none" d="M15 15h70v70H15z" transform="matrix(2.45 0 0 2.45 840 70)"/><path d="M1048.25 70H840v245h245V70h-36.75zm0 208.25h-171.5v-171.5h171.5v171.5z"/></g><g style="fill:#000"><path style="fill:none" d="M15 15h70v70H15z" transform="matrix(2.45 0 0 2.45 70 840)"/><path d="M278.25 840H70v245h245V840h-36.75zm0 208.25h-171.5v-171.5h171.5v171.5z"/></g><path d="M0 0h100v100H0z" transform="matrix(1.05 0 0 1.05 140 140)" style="fill:#000"/><path d="M0 0h100v100H0z" transform="matrix(1.05 0 0 1.05 910 140)" style="fill:#000"/><path d="M0 0h100v100H0z" transform="matrix(1.05 0 0 1.05 140 910)" style="fill:#000"/></svg>